<?xml version="1.0" standalone="no"?>
<!DOCTYPE svg PUBLIC "-//W3C//DTD SVG 20010904//EN"
 "http://www.w3.org/TR/2001/REC-SVG-20010904/DTD/svg10.dtd">
<svg version="1.0" xmlns="http://www.w3.org/2000/svg"
 width="700.000000pt" height="700.000000pt" viewBox="0 0 700.000000 700.000000"
 preserveAspectRatio="xMidYMid meet">
<metadata>
Created by potrace 1.11, written by Peter Selinger 2001-2013
</metadata>
<g transform="translate(0.000000,700.000000) scale(0.100000,-0.100000)"
fill="#000000" stroke="none">
<path d="M3500 5860 c0 -16 -3 -29 -8 -27 -10 3 -1752 -1003 -1752 -1013 0 -8
58 -48 107 -73 l32 -17 810 464 810 464 803 -460 c442 -253 808 -462 814 -465
9 -3 207 108 201 113 -7 6 -1808 1044 -1812 1044 -3 0 -5 -13 -5 -30z"/>
<path d="M2935 5046 c-308 -179 -561 -328 -562 -333 -2 -7 326 -203 340 -203
3 0 155 87 338 193 184 106 360 208 391 225 l57 33 390 -226 c214 -124 393
-225 397 -225 15 0 344 194 342 202 -3 7 -1096 644 -1123 654 -5 2 -262 -142
-570 -320z"/>
<path d="M4905 4314 c-605 -349 -1170 -675 -1256 -725 l-155 -89 -1248 720
c-686 396 -1249 720 -1252 720 -2 0 -4 -649 -4 -1443 l0 -1442 1256 -725 c690
-399 1259 -724 1263 -723 14 4 2475 1425 2489 1437 9 9 12 309 10 1458 l-3
1447 -1100 -635z m-3532 124 l27 -19 0 -1064 0 -1065 25 10 c23 9 120 -45 913
-502 488 -281 893 -518 900 -527 13 -16 18 -231 4 -231 -4 0 -455 258 -1002
574 l-995 574 -3 1166 -2 1166 52 -31 c29 -17 65 -40 81 -51z m4378 -2241 c-6
-6 -457 -268 -1003 -583 l-993 -573 -3 37 c-1 20 1 61 5 89 l8 52 919 531 918
530 54 -31 c60 -34 74 -33 19 1 l-35 22 0 1083 0 1083 58 36 57 36 3 -1152 c1
-723 -1 -1155 -7 -1161z m-3574 1777 c279 -163 632 -368 785 -457 l276 -161 4
-175 c8 -319 9 -1691 2 -1691 -4 0 -369 210 -811 467 l-803 468 0 933 c0 918
0 933 19 922 11 -5 248 -143 528 -306z m3191 -486 c-1 -436 -4 -855 -7 -931
l-6 -138 -670 -390 c-368 -215 -727 -424 -797 -464 l-128 -74 0 927 0 928 377
220 c207 120 566 330 797 466 232 135 424 246 429 247 4 1 6 -356 5 -791z"/>
<path d="M1880 3222 l0 -658 561 -324 c309 -179 566 -326 570 -328 5 -2 9 290
9 656 l0 659 -287 165 c-159 91 -333 191 -388 222 -55 31 -181 104 -279 162
-99 57 -181 104 -183 104 -2 0 -3 -296 -3 -658z"/>
<path d="M4915 3769 c-104 -61 -296 -172 -425 -246 -129 -75 -297 -171 -372
-215 l-138 -80 0 -660 c0 -527 3 -659 13 -655 7 2 262 149 567 325 l555 321 3
660 c1 364 -1 661 -5 661 -5 0 -93 -50 -198 -111z"/>
<path d="M3206 4566 c-154 -89 -281 -167 -283 -172 -1 -5 128 -84 287 -176
l290 -167 290 167 c159 92 288 171 287 176 -4 13 -564 336 -580 335 -7 0 -138
-73 -291 -163z"/>
</g>
</svg>
