<?xml version="1.0" encoding="utf-8"?>
<!-- Generator: Adobe Illustrator 19.1.0, SVG Export Plug-In . SVG Version: 6.00 Build 0)  -->
<svg version="1.1" id="Layer_1" xmlns="http://www.w3.org/2000/svg" xmlns:xlink="http://www.w3.org/1999/xlink" x="0px" y="0px"
	 viewBox="0 0 1000 1000" style="enable-background:new 0 0 1000 1000;" xml:space="preserve">
<style type="text/css">
	.st0{display:none;}
	.st1{opacity:0.8;fill:#F1F2F2;}
	.st2{opacity:0.4;fill:#F1F2F2;}
	.st3{opacity:0.6;fill:#F1F2F2;}
	.st4{opacity:0.8;}
	.st5{enable-background:new    ;}
	.st6{clip-path:url(#SVGID_2_);enable-background:new    ;}
	.st7{fill:#9FA0A0;}
	.st8{fill:#9A9B9B;}
	.st9{fill:#959696;}
	.st10{fill:#919191;}
	.st11{fill:#8C8C8C;}
	.st12{fill:#878888;}
	.st13{fill:#828383;}
	.st14{fill:#7D7E7E;}
	.st15{fill:#A4A5A5;}
	.st16{fill:#A9A9A9;}
	.st17{fill:#AEAEAE;}
	.st18{fill:#B2B3B3;}
	.st19{fill:#B7B8B8;}
	.st20{fill:#BCBDBD;}
	.st21{fill:#C1C2C2;}
	.st22{fill:#C6C6C6;}
	.st23{fill:#CACBCB;}
	.st24{fill:#CFD0D0;}
	.st25{fill:#D4D5D5;}
	.st26{fill:#D9DADA;}
	.st27{fill:#DEDFDF;}
	.st28{fill:#E3E3E3;}
	.st29{fill:#E7E8E8;}
	.st30{fill:#ECEDED;}
	.st31{clip-path:url(#SVGID_4_);enable-background:new    ;}
</style>
<rect x="-3.5" class="st0" width="1006.9" height="1000"/>
<g>
	<polygon class="st1" points="933.9,451.1 933.9,551 543.3,776.6 156.3,1000 156.3,208.1 249,261.6 249,846.5 501.8,700.5 
		847.3,501.1 	"/>
	<polygon class="st2" points="933.9,451.1 847.3,501.1 501.8,700.5 249,846.5 249,740.5 663.8,501.1 755.6,448.1 501.8,301.6 
		156.3,102.1 66.1,50 152.7,0 	"/>
	<polygon class="st3" points="755.6,448.1 663.8,501.1 249,261.6 156.3,208.1 156.3,1000 66.1,947.9 66.1,50 156.3,102.1 
		501.8,301.6 	"/>
	<g class="st4">
		<g>
			<g class="st5">
				<g class="st5">
					<defs>
						<path id="SVGID_1_" class="st5" d="M311.6,500.9c0-2,0-4.7,0.3-6.7c0.2-1.8,0.5-4.2,0.8-6c0.3-1.9,0.9-4.5,1.4-6.4
							c0.5-1.7,1.1-4,1.7-5.7c0.7-1.9,1.7-4.3,2.4-6.1c0.8-1.9,2-4.3,3-6c1.7-2.9,4.3-6.7,6.3-9.5c1.2-1.7,3.1-3.8,4.6-5.3
							c1.2-1.2,2.7-2.8,3.9-3.9c1.7-1.5,4.1-3.5,5.9-4.9c2.8-2.2,5.5-3.7,8.6-5.5c2.2-1.3,5.4-2.8,7.8-3.7c1.6-0.6,3.7-1.4,5.3-1.9
							c1.6-0.5,3.9-1.1,5.5-1.6c4.2-1.1,8.2-1.5,9.7-1.7c1.2-0.1,4.4-0.5,8.7-0.4c5,0,9,0.6,10.4,0.8c1.5,0.2,3.4,0.6,4.5,0.8
							c1.5,0.3,3.6,0.8,5.1,1.3c0.9,0.2,4.2,1.2,8.9,3.1c2.4,1,5.4,2.6,7.7,3.8c18.4,10.5,30.6,31.2,30.5,56.6
							c-0.1,40.1-30.5,76.6-67.9,81.7c37.5-5,67.9-41.6,67.9-81.7c0-25.4-12.1-46.1-30.5-56.6c1.8,1,4.2,2.4,5.8,3.7
							c1.3,0.9,3,2.1,4.2,3.1c1.5,1.2,3.6,2.9,4.9,4.3c1.2,1.2,2.8,2.7,3.9,4c1.3,1.4,3,3.4,4.1,5c3.7,4.8,5.9,9,6.5,10.2
							c1.3,2.5,3,5.8,4.9,11.2c1.2,3.4,2.2,8.1,2.9,11.6c0.4,1.9,0.6,4.6,0.8,6.6c0.2,1.8,0.2,4.3,0.2,6.2c0.1,2.3-0.1,5.3-0.4,7.5
							c-0.2,1.8-0.5,4.2-0.8,6c-0.4,1.9-0.9,4.5-1.5,6.4c-0.5,1.7-1.2,4-1.8,5.6c-0.7,1.8-1.7,4.3-2.5,6.1c-0.7,1.6-1.8,3.6-2.6,5.2
							c-1,1.7-2.4,4-3.5,5.7c-1.1,1.8-2.9,4.1-4.3,5.7c-2.1,2.5-5.2,5.8-7.6,7.9c-1.8,1.5-4.2,3.5-6.1,4.9c-1.2,0.9-2.9,2-4.2,2.9
							c0,0-4.7,2.9-8.5,4.6c-3.1,1.4-6,2.7-11.2,4.1c-11,3.1-22.3,3.7-33.7,1.7c-8.2-1.4-14.3-4-16.3-4.9
							c-6.9-2.9-12.7-6.8-14.4-8.1c-1.6-1.2-3.8-2.8-5.3-4.1c-1.2-1.1-2.9-2.6-4-3.7c-1.4-1.4-3.1-3.3-4.4-4.8
							c-2.2-2.6-4.8-6.4-6.7-9.2c-1.1-1.6-2.3-3.9-3.2-5.7c-0.9-1.7-2-4-2.6-5.9c-1.2-3.3-2.7-7.8-3.5-11.3
							c-0.7-3.2-1.3-7.5-1.6-10.8C311.6,505.3,311.6,502.8,311.6,500.9z"/>
					</defs>
					<clipPath id="SVGID_2_">
						<use xlink:href="#SVGID_1_"  style="overflow:visible;"/>
					</clipPath>
					<g class="st6">
						<path class="st7" d="M311.6,500.9c0.3,21,7.1,33.8,14.4,44.5c2.7,4,13.2,17.8,33.6,26c23.2,9.4,57.5,7.4,82-17.9
							c9.6-10,25-31.6,20.2-64.5c-1.2-8.2-7.4-36.1-37.3-53.6c18.4,10.5,30.6,31.2,30.5,56.6c-0.1,40.1-30.5,76.6-67.9,81.7
							c37.5-5,67.9-41.6,67.9-81.7c0-25.4-12.1-46.1-30.5-56.6c-5.5-2.9-18.3-9.7-36.7-9.8c-19.2-0.1-33.2,7.2-37.1,9.4
							c-13.2,7.6-21.7,16.1-29.4,29.1C315.2,474.3,311.4,488.8,311.6,500.9"/>
						<path class="st7" d="M454.9,491.9c-0.1,40.1-30.5,76.6-67.9,81.7c-0.1,0-0.2,0-0.3,0c-70.6,1.9-87.9-73.9-60.4-102.5
							c34.9-36.3,97,0,101.1,46.8c3.6,40.6-27.3,51.2-40.4,55.7C424.4,568.6,454.9,532,454.9,491.9c0-25.4-12.1-46.1-30.5-56.6
							c-1.2-0.6-2.7-1.4-3.9-2c-1.7-0.8-4.1-1.9-5.8-2.6l-3.2-1.2c-1.1-0.4-2.6-0.8-3.7-1.2l-2.6-0.7c-0.8-0.2-1.9-0.4-2.7-0.6
							l-2.2-0.4c-0.6-0.1-1.5-0.3-2.2-0.4l-1.9-0.3c-0.6-0.1-1.3-0.1-1.9-0.2l-1.7-0.1c-0.5,0-1.2-0.1-1.7-0.1l-1.6-0.1
							c-0.5,0-1.1,0-1.6,0l-1.6,0c-0.5,0-1.2,0-1.7,0l-1.7,0.1c-0.5,0-1.2,0.1-1.8,0.1l-1.9,0.2c-0.6,0.1-1.4,0.2-2,0.2l-2.5,0.4
							c-7.2,1.4-10.6,2.5-16.1,4.6l-3.9,1.7c-5.1,2.6-5.4,2.8-8.3,4.6l-4.2,2.9c-1.8,1.4-4.2,3.4-5.9,4.9l-3.9,3.9
							c-1.4,1.6-3.2,3.7-4.6,5.3l-3.3,4.6c-1,1.7-2.5,3.9-3.5,5.7l-2.6,5.2c-0.7,1.8-1.8,4.2-2.4,6.1l-1.7,5.7
							c-0.4,1.9-1.1,4.5-1.4,6.4l-0.8,6c-0.1,2-0.3,4.7-0.3,6.7l0.2,6.2c0.4,3.2,1,7.6,1.6,10.8l1.5,5.7c0.7,1.8,1.5,4.3,2.2,6.1
							l2.4,5.3c0.9,1.7,2.2,4,3.2,5.7l3.2,4.7c1.2,1.6,2.8,3.7,4.1,5.2l3.8,4c1.5,1.4,3.6,3.4,5.2,4.7l4.1,3.1
							c2,1.3,4.6,3.1,6.7,4.3l3.9,2c1.7,0.8,4.1,1.9,5.8,2.6l3.2,1.2c1.1,0.4,2.6,0.8,3.7,1.2l2.6,0.7c0.8,0.2,1.9,0.4,2.7,0.6
							l2.2,0.4c0.6,0.1,1.5,0.3,2.2,0.4l1.9,0.3c0.6,0.1,1.3,0.1,1.9,0.2l1.7,0.1c0.5,0,1.2,0.1,1.7,0.1l1.6,0.1c0.5,0,1.1,0,1.6,0
							l1.6,0c0.5,0,1.2,0,1.7,0l1.7-0.1c0.5,0,1.2-0.1,1.8-0.1l1.9-0.2c0.6-0.1,1.4-0.2,2-0.2l2.5-0.4c5.6-1.1,9.1-1.9,15.3-4.3
							l3.9-1.7c5-2.5,5.4-2.7,8.5-4.6l4.2-2.9c1.8-1.4,4.3-3.4,6.1-4.9l3.9-3.8c1.4-1.6,3.3-3.6,4.6-5.3l3.4-4.6
							c1.1-1.7,2.5-3.9,3.5-5.7l2.6-5.2c0.8-1.8,1.8-4.2,2.5-6.1l1.8-5.6c0.4-1.9,1.1-4.5,1.5-6.4l0.8-6c0.1-2.3,0.4-5.3,0.4-7.5
							l-0.2-6.2c-0.2-2-0.5-4.6-0.8-6.6l-1.2-5.9c-0.6-1.9-1.2-4.4-1.9-6.2l-2.1-5.5c-0.8-1.8-1.9-4.1-2.8-5.8l-2.9-4.9
							c-1.1-1.6-2.6-3.8-3.8-5.4l-3.6-4.3c-1.4-1.5-3.3-3.5-4.8-4.9l-4-3.4c-5.3-3.9-5.8-4.4-10-6.8
							C442.8,445.8,455,466.5,454.9,491.9"/>
						<path class="st8" d="M454.9,491.9c-0.1,33.4-21.2,64.4-50,76.7c-0.6,0.3-1.5,0.8-2.1,1.2c-47.5,22.1-104.6-32.4-87.2-83.2
							c15.2-44.6,81.9-46.2,109,9.9c8.9,18.4,11.4,54.3-19.7,72.2C433.7,556.3,454.9,525.4,454.9,491.9c0-25.4-12.1-46.1-30.5-56.6
							c-1.2-0.6-2.7-1.4-3.9-2c-1.7-0.8-4.1-1.9-5.8-2.6l-3.2-1.2c-1.1-0.4-2.6-0.8-3.7-1.2l-2.6-0.7c-0.8-0.2-1.9-0.4-2.7-0.6
							l-2.2-0.4c-0.6-0.1-1.5-0.3-2.2-0.4l-1.9-0.3c-0.6-0.1-1.3-0.1-1.9-0.2l-1.7-0.1c-0.5,0-1.2-0.1-1.7-0.1l-1.6-0.1
							c-0.5,0-1.1,0-1.6,0l-1.6,0c-0.5,0-1.2,0-1.7,0l-1.7,0.1c-0.5,0-1.2,0.1-1.8,0.1l-1.9,0.2c-0.6,0.1-1.4,0.2-2,0.2l-2.5,0.4
							c-7.2,1.4-10.6,2.5-16.1,4.6l-3.9,1.7c-5.1,2.6-5.4,2.8-8.3,4.6l-4.2,2.9c-1.8,1.4-4.2,3.4-5.9,4.9l-3.9,3.9
							c-1.4,1.6-3.2,3.7-4.6,5.3l-3.3,4.6c-1,1.7-2.5,3.9-3.5,5.7l-2.6,5.2c-0.7,1.8-1.8,4.2-2.4,6.1l-1.7,5.7
							c-0.4,1.9-1.1,4.5-1.4,6.4l-0.8,6c-0.1,2-0.3,4.7-0.3,6.7l0.2,6.2c0.4,3.2,1,7.6,1.6,10.8l1.5,5.7c0.7,1.8,1.5,4.3,2.2,6.1
							l2.4,5.3c0.9,1.7,2.2,4,3.2,5.7l3.2,4.7c1.2,1.6,2.8,3.7,4.1,5.2l3.8,4c1.5,1.4,3.6,3.4,5.2,4.7l4.1,3.1
							c2,1.3,4.6,3.1,6.7,4.3l3.9,2c1.7,0.8,4.1,1.9,5.8,2.6l3.2,1.2c1.1,0.4,2.6,0.8,3.7,1.2l2.6,0.7c0.8,0.2,1.9,0.4,2.7,0.6
							l2.2,0.4c0.6,0.1,1.5,0.3,2.2,0.4l1.9,0.3c0.6,0.1,1.3,0.1,1.9,0.2l1.7,0.1c0.5,0,1.2,0.1,1.7,0.1l1.6,0.1c0.5,0,1.1,0,1.6,0
							l1.6,0c0.5,0,1.2,0,1.7,0l1.7-0.1c0.5,0,1.2-0.1,1.8-0.1l1.9-0.2c0.6-0.1,1.4-0.2,2-0.2l2.5-0.4c5.6-1.1,9.1-1.9,15.3-4.3
							l3.9-1.7c5-2.5,5.4-2.7,8.5-4.6l4.2-2.9c1.8-1.4,4.3-3.4,6.1-4.9l3.9-3.8c1.4-1.6,3.3-3.6,4.6-5.3l3.4-4.6
							c1.1-1.7,2.5-3.9,3.5-5.7l2.6-5.2c0.8-1.8,1.8-4.2,2.5-6.1l1.8-5.6c0.4-1.9,1.1-4.5,1.5-6.4l0.8-6c0.1-2.3,0.4-5.3,0.4-7.5
							l-0.2-6.2c-0.2-2-0.5-4.6-0.8-6.6l-1.2-5.9c-0.6-1.9-1.2-4.4-1.9-6.2l-2.1-5.5c-0.8-1.8-1.9-4.1-2.8-5.8l-2.9-4.9
							c-1.1-1.6-2.6-3.8-3.8-5.4l-3.6-4.3c-1.4-1.5-3.3-3.5-4.8-4.9l-4-3.4c-5.3-3.9-5.8-4.4-10-6.8
							C442.8,445.8,455,466.5,454.9,491.9"/>
						<g>
							<path class="st9" d="M313.6,518.3c-11.9-54.8,43.1-83.8,83.5-57.7c42.1,27.2,45.8,78.8,19.3,102
								c22.8-14.8,38.6-41.8,38.6-70.6c0-25.4-12.1-46.1-30.5-56.6c-1.2-0.6-2.7-1.4-3.9-2c-1.7-0.8-4.1-1.9-5.8-2.6l-3.2-1.2
								c-1.1-0.4-2.6-0.8-3.7-1.2l-2.6-0.7c-0.8-0.2-1.9-0.4-2.7-0.6l-2.2-0.4c-0.6-0.1-1.5-0.3-2.2-0.4l-1.9-0.3
								c-0.6-0.1-1.3-0.1-1.9-0.2l-1.7-0.1c-0.5,0-1.2-0.1-1.7-0.1l-1.6-0.1c-0.5,0-1.1,0-1.6,0l-1.6,0c-0.5,0-1.2,0-1.7,0l-1.7,0.1
								c-0.5,0-1.2,0.1-1.8,0.1l-1.9,0.2c-0.6,0.1-1.4,0.2-2,0.2l-2.5,0.4c-7.2,1.4-10.6,2.5-16.1,4.6l-3.9,1.7
								c-5.1,2.6-5.4,2.8-8.3,4.6l-4.2,2.9c-1.8,1.4-4.2,3.4-5.9,4.9l-3.9,3.9c-1.4,1.6-3.2,3.7-4.6,5.3l-3.3,4.6
								c-1,1.7-2.5,3.9-3.5,5.7l-2.6,5.2c-0.7,1.8-1.8,4.2-2.4,6.1l-1.7,5.7c-0.4,1.9-1.1,4.5-1.4,6.4l-0.8,6
								c-0.1,2-0.3,4.7-0.3,6.7l0.2,6.2c0.4,3.2,1,7.6,1.6,10.8l1.5,5.7l1.6,4.5l-1.8-5.4C314.4,521.4,313.9,519.6,313.6,518.3"/>
							<path class="st9" d="M454.9,491.9c-0.1,28.8-15.8,55.9-38.6,70.6c-0.8,0.7-1.8,1.7-2.6,2.5c-11,8.1-34.3,18.8-66.7,0
								c2,1.2,4.7,2.7,6.7,3.8c1.7,0.8,4.1,1.9,5.8,2.6l3.2,1.2c1.1,0.4,2.6,0.8,3.7,1.2l2.6,0.7c0.8,0.2,1.9,0.4,2.7,0.6l2.2,0.4
								c0.6,0.1,1.5,0.3,2.2,0.4l1.9,0.3c0.6,0.1,1.3,0.1,1.9,0.2l1.7,0.1c0.5,0,1.2,0.1,1.7,0.1l1.6,0.1c0.5,0,1.1,0,1.6,0l1.6,0
								c0.5,0,1.2,0,1.7,0l1.7-0.1c0.5,0,1.2-0.1,1.8-0.1l1.9-0.2c0.6-0.1,1.4-0.2,2-0.2l2.5-0.4c5.6-1.1,9.1-1.9,15.3-4.3l3.9-1.7
								c5-2.5,5.4-2.7,8.5-4.6l4.2-2.9c1.8-1.4,4.3-3.4,6.1-4.9l3.9-3.8c1.4-1.6,3.3-3.6,4.6-5.3l3.4-4.6c1.1-1.7,2.5-3.9,3.5-5.7
								l2.6-5.2c0.8-1.8,1.8-4.2,2.5-6.1l1.8-5.6c0.4-1.9,1.1-4.5,1.5-6.4l0.8-6c0.1-2.3,0.4-5.3,0.4-7.5l-0.2-6.2
								c-0.2-2-0.5-4.6-0.8-6.6l-1.2-5.9c-0.6-1.9-1.2-4.4-1.9-6.2l-2.1-5.5c-0.8-1.8-1.9-4.1-2.8-5.8l-2.9-4.9
								c-1.1-1.6-2.6-3.8-3.8-5.4l-3.6-4.3c-1.4-1.5-3.3-3.5-4.8-4.9l-4-3.4c-5.3-3.9-5.8-4.4-10-6.8
								C442.8,445.8,455,466.5,454.9,491.9"/>
						</g>
						<g>
							<path class="st10" d="M312.2,511c-5.1-59.7,53.1-79.6,95-47.5c26.9,20.6,40.6,63.9,17.2,93c18.3-15.5,30.4-39.3,30.5-64.6
								c0-25.4-12.1-46.1-30.5-56.6c-1.2-0.6-2.7-1.4-3.9-2c-1.7-0.8-4.1-1.9-5.8-2.6l-3.2-1.2c-1.1-0.4-2.6-0.8-3.7-1.2l-2.6-0.7
								c-0.8-0.2-1.9-0.4-2.7-0.6l-2.2-0.4c-0.6-0.1-1.5-0.3-2.2-0.4l-1.9-0.3c-0.6-0.1-1.3-0.1-1.9-0.2l-1.7-0.1
								c-0.5,0-1.2-0.1-1.7-0.1l-1.6-0.1c-0.5,0-1.1,0-1.6,0l-1.6,0c-0.5,0-1.2,0-1.7,0l-1.7,0.1c-0.5,0-1.2,0.1-1.8,0.1l-1.9,0.2
								c-0.6,0.1-1.4,0.2-2,0.2l-2.5,0.4c-7.2,1.4-10.6,2.5-16.1,4.6l-3.9,1.7c-5.1,2.6-5.4,2.8-8.3,4.6l-4.2,2.9
								c-1.8,1.4-4.2,3.4-5.9,4.9l-3.9,3.9c-1.4,1.6-3.2,3.7-4.6,5.3l-3.3,4.6c-1,1.7-2.5,3.9-3.5,5.7l-2.6,5.2
								c-0.7,1.8-1.8,4.2-2.4,6.1l-1.7,5.7c-0.4,1.9-1.1,4.5-1.4,6.4l-0.8,6c-0.1,2-0.3,4.7-0.3,6.7l0.2,6.2l0.6,5.5L312.2,511"/>
							<path class="st10" d="M454.9,491.9c0,25.3-12.1,49.1-30.5,64.6c-0.7,0.9-1.7,2.2-2.4,3.2c-21.4,22-47.2,17.2-60.6,12.5
								l3.2,1.1l1.9,0.6l2.6,0.7c0.8,0.2,1.9,0.4,2.7,0.6l2.2,0.4c0.6,0.1,1.5,0.3,2.2,0.4l1.9,0.3c0.6,0.1,1.3,0.1,1.9,0.2l1.7,0.1
								c0.5,0,1.2,0.1,1.7,0.1l1.6,0.1c0.5,0,1.1,0,1.6,0l1.6,0c0.5,0,1.2,0,1.7,0l1.7-0.1c0.5,0,1.2-0.1,1.8-0.1l1.9-0.2
								c0.6-0.1,1.4-0.2,2-0.2l2.5-0.4c5.6-1.1,9.1-1.9,15.3-4.3l3.9-1.7c5-2.5,5.4-2.7,8.5-4.6l4.2-2.9c1.8-1.4,4.3-3.4,6.1-4.9
								l3.9-3.8c1.4-1.6,3.3-3.6,4.6-5.3l3.4-4.6c1.1-1.7,2.5-3.9,3.5-5.7l2.6-5.2c0.8-1.8,1.8-4.2,2.5-6.1l1.8-5.6
								c0.4-1.9,1.1-4.5,1.5-6.4l0.8-6c0.1-2.3,0.4-5.3,0.4-7.5l-0.2-6.2c-0.2-2-0.5-4.6-0.8-6.6l-1.2-5.9c-0.6-1.9-1.2-4.4-1.9-6.2
								l-2.1-5.5c-0.8-1.8-1.9-4.1-2.8-5.8l-2.9-4.9c-1.1-1.6-2.6-3.8-3.8-5.4l-3.6-4.3c-1.4-1.5-3.3-3.5-4.8-4.9l-4-3.4
								c-5.3-3.9-5.8-4.4-10-6.8C442.8,445.8,455,466.5,454.9,491.9"/>
						</g>
						<g>
							<path class="st11" d="M314.4,482.2c16-50.2,87-49.3,115.2,1.5c17.6,31.8,7.3,56.6,2.1,65.8c14.2-15.2,23.2-35.9,23.2-57.7
								c0-25.4-12.1-46.1-30.5-56.6c-1.2-0.6-2.7-1.4-3.9-2c-1.7-0.8-4.1-1.9-5.8-2.6l-3.2-1.2c-1.1-0.4-2.6-0.8-3.7-1.2l-2.6-0.7
								c-0.8-0.2-1.9-0.4-2.7-0.6l-2.2-0.4c-0.6-0.1-1.5-0.3-2.2-0.4l-1.9-0.3c-0.6-0.1-1.3-0.1-1.9-0.2l-1.7-0.1
								c-0.5,0-1.2-0.1-1.7-0.1l-1.6-0.1c-0.5,0-1.1,0-1.6,0l-1.6,0c-0.5,0-1.2,0-1.7,0l-1.7,0.1c-0.5,0-1.2,0.1-1.8,0.1l-1.9,0.2
								c-0.6,0.1-1.4,0.2-2,0.2l-2.5,0.4c-7.2,1.4-10.6,2.5-16.1,4.6l-3.9,1.7c-5.1,2.6-5.4,2.8-8.3,4.6l-4.2,2.9
								c-1.8,1.4-4.2,3.4-5.9,4.9l-3.9,3.9c-1.4,1.6-3.2,3.7-4.6,5.3l-3.3,4.6c-1,1.7-2.5,3.9-3.5,5.7l-2.6,5.2
								c-0.7,1.8-1.8,4.2-2.4,6.1l-1.7,5.7c-0.4,1.9-1.1,4.5-1.4,6.4l-0.8,6l-0.3,5.7l0.3-5.5C312.8,488.4,313.1,486.3,314.4,482.2"
								/>
							<path class="st11" d="M454.9,491.9c0,21.8-9,42.5-23.2,57.7c0,0,0,0,0,0c-7.9,15.5-26.9,30.5-56.2,26.1l2.5,0.3
								c0.6,0.1,1.3,0.1,1.9,0.2l1.7,0.1c0.5,0,1.2,0.1,1.7,0.1l1.6,0.1c0.5,0,1.1,0,1.6,0l1.6,0c0.5,0,1.2,0,1.7,0l1.7-0.1
								c0.5,0,1.2-0.1,1.8-0.1l1.9-0.2c0.6-0.1,1.4-0.2,2-0.2l2.5-0.4c5.6-1.1,9.1-1.9,15.3-4.3l3.9-1.7c5-2.5,5.4-2.7,8.5-4.6
								l4.2-2.9c1.8-1.4,4.3-3.4,6.1-4.9l3.9-3.8c1.4-1.6,3.3-3.6,4.6-5.3l3.4-4.6c1.1-1.7,2.5-3.9,3.5-5.7l2.6-5.2
								c0.8-1.8,1.8-4.2,2.5-6.1l1.8-5.6c0.4-1.9,1.1-4.5,1.5-6.4l0.8-6c0.1-2.3,0.4-5.3,0.4-7.5l-0.2-6.2c-0.2-2-0.5-4.6-0.8-6.6
								l-1.2-5.9c-0.6-1.9-1.2-4.4-1.9-6.2l-2.1-5.5c-0.8-1.8-1.9-4.1-2.8-5.8l-2.9-4.9c-1.1-1.6-2.6-3.8-3.8-5.4l-3.6-4.3
								c-1.4-1.5-3.3-3.5-4.8-4.9l-4-3.4c-5.3-3.9-5.8-4.4-10-6.8C442.8,445.8,455,466.5,454.9,491.9"/>
						</g>
						<g>
							<path class="st12" d="M314,482.2c16.2-54.6,90.3-53,120.1,2.5c10,18.6,11.3,38.5,3.8,57.4c10.5-14.2,16.9-31.8,17-50.2
								c0-25.4-12.1-46.1-30.5-56.6c-1.2-0.6-2.7-1.4-3.9-2c-1.7-0.8-4.1-1.9-5.8-2.6l-3.2-1.2c-1.1-0.4-2.6-0.8-3.7-1.2l-2.6-0.7
								c-0.8-0.2-1.9-0.4-2.7-0.6l-2.2-0.4c-0.6-0.1-1.5-0.3-2.2-0.4l-1.9-0.3c-0.6-0.1-1.3-0.1-1.9-0.2l-1.7-0.1
								c-0.5,0-1.2-0.1-1.7-0.1l-1.6-0.1c-0.5,0-1.1,0-1.6,0l-1.6,0c-0.5,0-1.2,0-1.7,0l-1.7,0.1c-0.5,0-1.2,0.1-1.8,0.1l-1.9,0.2
								c-0.6,0.1-1.4,0.2-2,0.2l-2.5,0.4c-7.2,1.4-10.6,2.5-16.1,4.6l-3.9,1.7c-5.1,2.6-5.4,2.8-8.3,4.6l-4.2,2.9
								c-1.8,1.4-4.2,3.4-5.9,4.9l-3.9,3.9c-1.4,1.6-3.2,3.7-4.6,5.3l-3.3,4.6c-1,1.7-2.5,3.9-3.5,5.7l-2.6,5.2
								c-0.7,1.8-1.8,4.2-2.4,6.1l-1.7,5.7c-0.4,1.8-1,4.1-1.3,5.9l1.2-5.2C314,482.4,314,482.3,314,482.2"/>
							<path class="st12" d="M454.9,491.9c0,18.4-6.4,36-17,50.2c-0.4,1.2-1,2.9-1.5,4.2c-8.9,18.3-25.7,29.3-46.3,30.3l1.7-0.1
								l1.4-0.1l1.9-0.2c0.6-0.1,1.4-0.2,2-0.2l2.5-0.4c5.6-1.1,9.1-1.9,15.3-4.3l3.9-1.7c5-2.5,5.4-2.7,8.5-4.6l4.2-2.9
								c1.8-1.4,4.3-3.4,6.1-4.9l3.9-3.8c1.4-1.6,3.3-3.6,4.6-5.3l3.4-4.6c1.1-1.7,2.5-3.9,3.5-5.7l2.6-5.2c0.8-1.8,1.8-4.2,2.5-6.1
								l1.8-5.6c0.4-1.9,1.1-4.5,1.5-6.4l0.8-6c0.1-2.3,0.4-5.3,0.4-7.5l-0.2-6.2c-0.2-2-0.5-4.6-0.8-6.6l-1.2-5.9
								c-0.6-1.9-1.2-4.4-1.9-6.2l-2.1-5.5c-0.8-1.8-1.9-4.1-2.8-5.8l-2.9-4.9c-1.1-1.6-2.6-3.8-3.8-5.4l-3.6-4.3
								c-1.4-1.5-3.3-3.5-4.8-4.9l-4-3.4c-5.3-3.9-5.8-4.4-10-6.8C442.8,445.8,455,466.5,454.9,491.9"/>
						</g>
						<g>
							<path class="st13" d="M318.8,469.1c27.8-53.7,105.7-30.8,123.3,22.8c4.8,14.7,5.4,27,1.8,41.1c7-12.3,11-26.5,11.1-41.1
								c0-25.4-12.1-46.1-30.5-56.6c-1.2-0.6-2.7-1.4-3.9-2c-1.7-0.8-4.1-1.9-5.8-2.6l-3.2-1.2c-1.1-0.4-2.6-0.8-3.7-1.2l-2.6-0.7
								c-0.8-0.2-1.9-0.4-2.7-0.6l-2.2-0.4c-0.6-0.1-1.5-0.3-2.2-0.4l-1.9-0.3c-0.6-0.1-1.3-0.1-1.9-0.2l-1.7-0.1
								c-0.5,0-1.2-0.1-1.7-0.1l-1.6-0.1c-0.5,0-1.1,0-1.6,0l-1.6,0c-0.5,0-1.2,0-1.7,0l-1.7,0.1c-0.5,0-1.2,0.1-1.8,0.1l-1.9,0.2
								c-0.6,0.1-1.4,0.2-2,0.2l-2.5,0.4c-7.2,1.4-10.6,2.5-16.1,4.6l-3.9,1.7c-5.1,2.6-5.4,2.8-8.3,4.6l-4.2,2.9
								c-1.8,1.4-4.2,3.4-5.9,4.9l-3.9,3.9c-1.4,1.6-3.2,3.7-4.6,5.3l-3.3,4.6c-1,1.7-2.5,3.9-3.5,5.7l-2.6,5.2
								c-0.7,1.7-1.7,4-2.3,5.7l1.9-4.7C318.1,470.4,318.5,469.6,318.8,469.1"/>
							<path class="st13" d="M454.9,491.9c0,14.6-4.1,28.8-11.1,41.1c-0.2,1.4-0.5,3.2-0.8,4.5c-6.1,22.5-25,34.1-40.5,37.5l2.7-0.6
								c3.8-1,5.5-1.5,9.7-3.1l3.9-1.7c5-2.5,5.4-2.7,8.5-4.6l4.2-2.9c1.8-1.4,4.3-3.4,6.1-4.9l3.9-3.8c1.4-1.6,3.3-3.6,4.6-5.3
								l3.4-4.6c1.1-1.7,2.5-3.9,3.5-5.7l2.6-5.2c0.8-1.8,1.8-4.2,2.5-6.1l1.8-5.6c0.4-1.9,1.1-4.5,1.5-6.4l0.8-6
								c0.1-2.3,0.4-5.3,0.4-7.5l-0.2-6.2c-0.2-2-0.5-4.6-0.8-6.6l-1.2-5.9c-0.6-1.9-1.2-4.4-1.9-6.2l-2.1-5.5
								c-0.8-1.8-1.9-4.1-2.8-5.8l-2.9-4.9c-1.1-1.6-2.6-3.8-3.8-5.4l-3.6-4.3c-1.4-1.5-3.3-3.5-4.8-4.9l-4-3.4
								c-5.3-3.9-5.8-4.4-10-6.8C442.8,445.8,455,466.5,454.9,491.9"/>
						</g>
						<g>
							<path class="st14" d="M331.8,450.3c44.8-42.5,120,6.9,118.3,62.7c-0.1,2.6-0.5,6-0.8,8.6c3.6-9.3,5.6-19.4,5.7-29.7
								c0-25.4-12.1-46.1-30.5-56.6c-1.2-0.6-2.7-1.4-3.9-2c-1.7-0.8-4.1-1.9-5.8-2.6l-3.2-1.2c-1.1-0.4-2.6-0.8-3.7-1.2l-2.6-0.7
								c-0.8-0.2-1.9-0.4-2.7-0.6l-2.2-0.4c-0.6-0.1-1.5-0.3-2.2-0.4l-1.9-0.3c-0.6-0.1-1.3-0.1-1.9-0.2l-1.7-0.1
								c-0.5,0-1.2-0.1-1.7-0.1l-1.6-0.1c-0.5,0-1.1,0-1.6,0l-1.6,0c-0.5,0-1.2,0-1.7,0l-1.7,0.1c-0.5,0-1.2,0.1-1.8,0.1l-1.9,0.2
								c-0.6,0.1-1.4,0.2-2,0.2l-2.5,0.4c-7.2,1.4-10.6,2.5-16.1,4.6l-3.9,1.7c-5.1,2.6-5.4,2.8-8.3,4.6l-4.2,2.9
								c-1.8,1.4-4.2,3.4-5.9,4.9l-3.9,3.9c-1.4,1.6-3.2,3.7-4.6,5.3l-3.3,4.6l-0.6,0.8l2.4-3.3
								C327.8,454.7,329.9,452.1,331.8,450.3"/>
							<path class="st14" d="M454.9,491.9c0,10.3-2,20.3-5.7,29.7c0,1.2,0.1,2.8,0.2,4c-3,27.5-21.2,39.7-31.8,44.5l3.9-1.8
								c1.7-1,4.1-2.2,5.8-3.3l4.2-2.9c1.8-1.4,4.3-3.4,6.1-4.9l3.9-3.8c1.4-1.6,3.3-3.6,4.6-5.3l3.4-4.6c1.1-1.7,2.5-3.9,3.5-5.7
								l2.6-5.2c0.8-1.8,1.8-4.2,2.5-6.1l1.8-5.6c0.4-1.9,1.1-4.5,1.5-6.4l0.8-6c0.1-2.3,0.4-5.3,0.4-7.5l-0.2-6.2
								c-0.2-2-0.5-4.6-0.8-6.6l-1.2-5.9c-0.6-1.9-1.2-4.4-1.9-6.2l-2.1-5.5c-0.8-1.8-1.9-4.1-2.8-5.8l-2.9-4.9
								c-1.1-1.6-2.6-3.8-3.8-5.4l-3.6-4.3c-1.4-1.5-3.3-3.5-4.8-4.9l-4-3.4c-5.3-3.9-5.8-4.4-10-6.8
								C442.8,445.8,455,466.5,454.9,491.9"/>
						</g>
						<path class="st15" d="M369.9,572.4c41.8,6.2,77.3-40.5,38-90.6c-24.9-31.8-86.4-33.2-93.5,18.1
							C309.8,533.5,335.7,567.4,369.9,572.4"/>
						<path class="st16" d="M365.5,570.8c43.8,9.6,72.4-37.1,47.1-76.8c-30.6-48-85-36.1-95.6-0.9
							C307.1,526,330.2,563.1,365.5,570.8"/>
						<path class="st17" d="M353.8,566.3c40.6,16.6,79.3-15.9,59-66c-15.9-39.2-77.5-51.1-93.8-8.4
							C307.3,522.6,327.9,555.7,353.8,566.3"/>
						<path class="st18" d="M353.9,565.4c40.2,16.9,74.1-18.5,57.5-60.1c-16.8-42-74-51.4-90.1-14.7
							C307.8,521.5,327.2,554.2,353.9,565.4"/>
						<path class="st19" d="M354.1,564.5c36.5,14.5,72.3-15.4,53.8-59.5c-16.7-39.8-72.3-46.5-86.2-10.5
							C313.2,516.7,319.7,548.1,354.1,564.5"/>
						<path class="st20" d="M341.2,555.9c45.4,30.4,75.3-9.1,67.5-40.7c-10.4-41.9-67.2-56.8-84.4-22.1
							C308.5,524.8,334.1,551.1,341.2,555.9"/>
						<path class="st21" d="M355.9,562.6c36.1,12.9,61.4-23.1,47.2-52.8c-21.2-44-69.4-42.5-80.3-7.4
							C317.7,518.6,322.4,548.1,355.9,562.6"/>
						<path class="st22" d="M342.1,553.6c14.3,10.9,31.5,11.8,41.1,7c7-3.5,22.8-14.1,19.9-37.4c-4.8-38-52.1-58.1-72.2-30.8
							C310.6,519.8,332.7,546.4,342.1,553.6"/>
						<path class="st23" d="M342.7,552.3c0.4,0.4,14,7.7,18,8.3c9.5,1.4,13,1,22.1-2.4c0.2-0.1,16.1-7.6,17.7-27.6
							c2.5-32-40.4-63.1-66.1-38.4C320.6,505.2,318.9,530.8,342.7,552.3"/>
						<path class="st24" d="M344.8,551.7c0.2,0.1,20.5,14.2,37.4,3.4c17.3-11,14.4-28.2,13.2-35.5c-0.6-3.5-3.1-12.8-13.1-22.3
							c-1.6-1.5-5.4-5.2-20.7-9.8c-0.2-0.1-19-3.8-29.9,12.8C322.5,514.1,324.9,537.7,344.8,551.7"/>
						<path class="st25" d="M346.7,550.8c3.3,2.3,20.4,8.7,28,4.4c7.8-4.4,20.9-11.8,17.8-30.4c-1.1-6.9-2.2-10.7-2.2-10.7
							c-0.8-1.5-12.6-16.4-13.1-16.6c-14.4-6.3-14.4-6.3-21.2-5.9c-8.5,0.5-13.6,0.8-21,8.3C329.9,505.3,319.7,531.5,346.7,550.8"/>
						<path class="st26" d="M342.8,544.5c9.2,8.4,19.5,11,30.6,7.6c0.1,0,7.8-3.4,10.8-7.5l5.2-14.5c0-0.4-3.5-15.6-3.7-16
							c-3.7-5.8-7.8-11.5-16.8-16.2c-4.2-2.2-7.2-3.8-21.5-1.7c-0.6,0.1-8.8,5.4-9.9,6.4C337.2,502.7,321.2,524.6,342.8,544.5"/>
						<path class="st27" d="M352.8,548.5c2.1,1.2,11,1.9,11,1.8l8.2-1.7l6.4-3.9c0.6-0.7,1.5-1.7,1.8-2.6l4.4-12.1
							c0-0.3-3.7-15.6-3.8-15.9c-2.8-5.5-18.6-14.5-18.7-14.5c-3.6-0.3-13.6,0-14.5,0.4c-2.6,1.1-10.6,10.7-10.6,10.7
							c-0.6,1.1-2.8,9.3-2.7,10.2c0,0.1,1,6.8,4.8,15.8C339.3,537.3,351.8,547.9,352.8,548.5"/>
						<path class="st28" d="M350,542.4c0.1,0,7.8,4.1,12,4.6l8.9-2c0.9-0.7,1.3-2.4,1.9-3.4c1.4-2.2,3.3-5.1,4.9-7.1
							c0.9-1.2,2.8-2.9,2.5-4.3c-1.5-7.3-5.1-15.7-5.1-15.8c-0.2-0.3-11.8-8.1-12.2-8.2c-0.5-0.1-13.9-0.1-14.3,0.1
							c-0.4,0.2-6.8,6.3-9.8,10.6c-2.7,3.9,3.6,18.7,3.6,18.8C344.1,538.2,347.4,540.8,350,542.4"/>
						<path class="st29" d="M358.8,540.5c0,0,9.9-3,9.9-3c2-1.4,4.2-4.5,4.5-7l-5.9-15.6c-1-0.8-2.3-2.2-3.6-2.4
							c-1-0.1-13.6-0.1-13.9,0.1c-2.1,0.9-5,3.3-5.4,5.6c-0.3,2.2,1.3,15.4,2.1,16.3L358.8,540.5"/>
						<path class="st30" d="M355.6,532.9c0.6,0,1.3-0.5,1.9-0.7c-0.8-0.5-1.9-1.1-2.7-1.6c0.1,0.6-0.1,1.5,0.3,2
							C355.2,532.8,355.4,532.9,355.6,532.9"/>
					</g>
				</g>
				<g class="st5">
					<defs>
						<path id="SVGID_3_" class="st5" d="M349.9,566.8c-1.3-0.8-3.1-1.8-4.3-2.6c-2-1.4-4.6-3.3-6.5-4.8c-2.6-2.1-5.7-5.2-8-7.6
							c-1.5-1.6-3.4-3.8-4.6-5.6c-1.1-1.6-2.7-3.8-3.8-5.5c-0.9-1.5-2-3.5-2.8-5c-0.9-1.7-2-4.1-2.7-5.9c-0.7-1.6-1.4-3.9-2-5.5
							c-0.7-1.8-1.3-4.4-1.7-6.3c-0.7-3.6-1.5-8.4-1.7-12c-0.2-3.3-0.3-7.8,0.1-11.1c0.2-2,0.4-4.6,0.8-6.6c0.4-1.8,0.8-4.1,1.3-5.9
							c0.5-1.9,1.2-4.4,1.9-6.2c0.6-1.6,1.4-3.8,2.2-5.5c0.8-1.8,1.9-4.1,2.9-5.8c3.2-5.9,6.8-10.3,6.8-10.3c2.1-2.6,5-5.9,7.4-8.2
							c1.4-1.4,3.5-3.1,5-4.4c1.2-1,2.9-2.2,4.1-3.1c1.7-1.2,4.1-2.6,5.9-3.7c1.1-0.7,2.7-1.5,3.9-2c3.2-1.5,6.8-3.2,12.8-4.9
							c9.7-2.7,19.6-3.5,29.4-2.2c5,0.6,9.9,1.7,14.6,3.3c3.4,1.1,5.5,2.1,7.7,3c1.8,0.8,4.1,2,5.8,3c-10.7-6.1-23.4-8.7-37.1-6.8
							c13.7-1.8,26.5,0.8,37.1,6.8c2.6,1.6,6.1,3.8,8.6,5.7c1.7,1.3,3.8,3.1,5.4,4.6c1.2,1.1,2.8,2.7,3.9,3.9
							c1.4,1.5,3.2,3.6,4.5,5.3c1.1,1.3,2.4,3.2,3.3,4.6c1.1,1.7,2.5,3.9,3.4,5.7c0.8,1.5,1.8,3.6,2.6,5.2c0.8,1.8,1.8,4.2,2.4,6.1
							c0.6,1.7,1.2,4,1.7,5.7c0.6,1.9,1.1,4.5,1.4,6.4c0.2,1.8,0.6,4.2,0.8,6c0.2,2,0.3,4.7,0.3,6.7c0,3.7-0.5,8.6-1,12.2
							c-0.3,2.2-0.9,5-1.5,7.1c-1.7,5.7-2.5,8.3-4.2,11.6c-0.8,1.6-1.8,3.7-2.6,5.2c-0.9,1.7-2.3,3.9-3.3,5.5
							c-2.9,4.4-5.7,7.6-7.5,9.5c-1.9,2.1-4.7,4.9-8.9,8.2c-1.2,0.9-2.9,2.2-4.1,3c-1.7,1.2-4.1,2.6-5.9,3.6c-2.9,1.7-7.7,3.7-8.6,4
							c-1.6,0.6-3.8,1.4-5.5,1.9c-1.6,0.5-3.8,1.1-5.4,1.5c-9.1,2.1-18.5,2.5-27.9,1.1c-6.4-0.9-11.4-2.5-12.7-3
							c-3.1-1.1-3.9-1.3-7.7-3C353.9,569,351.6,567.8,349.9,566.8z"/>
					</defs>
					<clipPath id="SVGID_4_">
						<use xlink:href="#SVGID_3_"  style="overflow:visible;"/>
					</clipPath>
					<g class="st31">
						<path class="st7" d="M349.9,566.8c-13.1-7.6-22.9-17.8-29.9-31.1c-10.5-19.9-8.2-40-8.1-40.9c1.5-11.9,2.5-14.8,6.1-24.1
							c1.3-3.4,5.8-11.4,9.7-16.1c4.5-5.4,16.4-19.9,39.2-26.2c13.5-3.8,34.5-5.6,57.6,7c-10.7-6.1-23.4-8.7-37.1-6.8
							c13.7-1.8,26.5,0.8,37.1,6.8c10.3,6.3,22.1,14.8,31.7,34.9c3.4,7.1,8.6,22.1,5.5,43.1c-0.8,5.2-4.4,23.3-19.1,39
							c-10.7,11.4-23.6,18.9-38.5,22.3C377.9,580.7,357.4,571.2,349.9,566.8"/>
						<path class="st7" d="M424.4,435.4c4.9,2.9,8.7,5.5,14,10.2l3.9,3.9c1.4,1.6,3.2,3.6,4.5,5.3l3.3,4.6c1,1.7,2.5,3.9,3.4,5.7
							l2.6,5.2c0.7,1.8,1.8,4.2,2.4,6.1l1.7,5.7c0.4,1.9,1,4.5,1.4,6.4l0.8,6c0.1,2,0.3,4.7,0.3,6.7l-0.3,6.2
							c-0.3,2.2-0.6,5.2-1,7.3l-1.3,5.8c-0.6,1.9-1.3,4.4-1.9,6.2l-2.2,5.4c-0.9,1.7-2,4.1-2.9,5.8l-3,4.9c-1.2,1.6-2.7,3.8-3.9,5.3
							l-3.6,4.2c-1.5,1.5-3.4,3.5-4.9,4.9l-4,3.3c-1.9,1.4-4.4,3.2-6.3,4.4l-3.8,2.2c-5,2.6-5.3,2.7-8.6,4l-2.7,1
							c-3.8,1.3-7.8,2.6-15,3.6l-2,0.2c-0.6,0.1-1.3,0.1-1.9,0.2l-1.8,0.1c-0.5,0-1.2,0.1-1.7,0.1l-1.7,0c-0.5,0-1.1,0-1.6,0l-1.6,0
							c-0.5,0-1.1,0-1.6-0.1l-1.7-0.1c-0.5,0-1.2-0.1-1.7-0.1l-1.8-0.2c-0.6-0.1-1.3-0.2-1.9-0.3l-2.1-0.3c-0.7-0.1-1.6-0.3-2.2-0.4
							l-2.5-0.6c-0.8-0.2-2-0.5-2.8-0.7l-3.1-1c-1.1-0.4-2.7-0.9-3.8-1.4l-3.9-1.6c-1.8-0.9-4.1-2-5.8-3l-4.3-2.6
							c-2-1.4-4.6-3.3-6.5-4.8l-4.1-3.6c-1.5-1.5-3.5-3.5-4.9-5.1l-3.6-4.4c-1.1-1.7-2.7-3.8-3.8-5.5l-2.8-5c-0.8-1.8-2-4.1-2.7-5.9
							l-2-5.5c-0.5-1.9-1.3-4.4-1.7-6.3l-1.1-5.9c-0.3-3.3-0.7-7.7-0.8-11l0.3-6.2c0.2-2,0.5-4.6,0.8-6.6l1.3-5.9
							c0.6-1.9,1.2-4.4,1.9-6.2l2.2-5.5c0.9-1.8,1.9-4.1,2.9-5.8l2.9-4.9c1.1-1.6,2.6-3.8,3.8-5.4l3.6-4.2c1.5-1.5,3.4-3.5,4.9-4.9
							l4-3.4c1.8-1.4,4.3-3.2,6.2-4.4l3.8-2.3c5.1-2.7,5.3-2.8,8.4-4.1l2.8-1.1c5-1.7,8.5-2.8,15.8-3.9l2-0.2
							c0.6-0.1,1.3-0.1,1.9-0.2l1.8-0.1c0.5,0,1.2-0.1,1.7-0.1l1.7,0c0.5,0,1.1,0,1.6,0l1.6,0c0.5,0,1.1,0,1.6,0.1l1.7,0.1
							c0.5,0,1.2,0.1,1.7,0.1l1.8,0.2c0.6,0.1,1.3,0.2,1.9,0.3l2.1,0.3c0.7,0.1,1.6,0.3,2.2,0.4l2.5,0.6c0.8,0.2,2,0.5,2.8,0.7
							l3.1,1c1.1,0.4,2.7,0.9,3.8,1.4l3.9,1.6C420.3,433.2,422.7,434.3,424.4,435.4c-10.7-6.1-23.4-8.7-37.1-6.8
							c-0.1,0-0.1,0.1-0.2,0.1C323.6,448.1,345,515,381.7,537c43.5,26.1,89.9-7.7,77.6-56.5c-5.9-23.3-23.1-51.2-72-52
							C401,426.7,413.7,429.3,424.4,435.4"/>
						<path class="st8" d="M424.4,435.4c4.9,2.9,8.7,5.5,14,10.2l3.9,3.9c1.4,1.6,3.2,3.6,4.5,5.3l3.3,4.6c1,1.7,2.5,3.9,3.4,5.7
							l2.6,5.2c0.7,1.8,1.8,4.2,2.4,6.1l1.7,5.7c0.4,1.9,1,4.5,1.4,6.4l0.8,6c0.1,2,0.3,4.7,0.3,6.7l-0.3,6.2
							c-0.3,2.2-0.6,5.2-1,7.3l-1.3,5.8c-0.6,1.9-1.3,4.4-1.9,6.2l-2.2,5.4c-0.9,1.7-2,4.1-2.9,5.8l-3,4.9c-1.2,1.6-2.7,3.8-3.9,5.3
							l-3.6,4.2c-1.5,1.5-3.4,3.5-4.9,4.9l-4,3.3c-1.9,1.4-4.4,3.2-6.3,4.4l-3.8,2.2c-5,2.6-5.3,2.7-8.6,4l-2.7,1
							c-3.8,1.3-7.8,2.6-15,3.6l-2,0.2c-0.6,0.1-1.3,0.1-1.9,0.2l-1.8,0.1c-0.5,0-1.2,0.1-1.7,0.1l-1.7,0c-0.5,0-1.1,0-1.6,0l-1.6,0
							c-0.5,0-1.1,0-1.6-0.1l-1.7-0.1c-0.5,0-1.2-0.1-1.7-0.1l-1.8-0.2c-0.6-0.1-1.3-0.2-1.9-0.3l-2.1-0.3c-0.7-0.1-1.6-0.3-2.2-0.4
							l-2.5-0.6c-0.8-0.2-2-0.5-2.8-0.7l-3.1-1c-1.1-0.4-2.7-0.9-3.8-1.4l-3.9-1.6c-1.8-0.9-4.1-2-5.8-3l-4.3-2.6
							c-2-1.4-4.6-3.3-6.5-4.8l-4.1-3.6c-1.5-1.5-3.5-3.5-4.9-5.1l-3.6-4.4c-1.1-1.7-2.7-3.8-3.8-5.5l-2.8-5c-0.8-1.8-2-4.1-2.7-5.9
							l-2-5.5c-0.5-1.9-1.3-4.4-1.7-6.3l-1.1-5.9c-0.3-3.3-0.7-7.7-0.8-11l0.3-6.2c0.2-2,0.5-4.6,0.8-6.6l1.3-5.9
							c0.6-1.9,1.2-4.4,1.9-6.2l2.2-5.5c0.9-1.8,1.9-4.1,2.9-5.8l2.9-4.9c1.1-1.6,2.6-3.8,3.8-5.4l3.6-4.2c1.5-1.5,3.4-3.5,4.9-4.9
							l4-3.4c1.8-1.4,4.3-3.2,6.2-4.4l3.8-2.3c5.1-2.7,5.3-2.8,8.4-4.1l2.8-1.1c5-1.7,8.5-2.8,15.8-3.9l2-0.2
							c0.6-0.1,1.3-0.1,1.9-0.2l1.8-0.1c0.5,0,1.2-0.1,1.7-0.1l1.7,0c0.5,0,1.1,0,1.6,0l1.6,0c0.5,0,1.1,0,1.6,0.1l1.7,0.1
							c0.5,0,1.2,0.1,1.7,0.1l1.8,0.2c0.6,0.1,1.3,0.2,1.9,0.3l2.1,0.3c0.7,0.1,1.6,0.3,2.2,0.4l2.5,0.6c0.8,0.2,2,0.5,2.8,0.7
							l3.1,1c1.1,0.4,2.7,0.9,3.8,1.4l3.9,1.6C420.3,433.2,422.7,434.3,424.4,435.4c-4-2.3-8.2-4-12.8-5.3c-1.3-0.4-3.1-0.9-4.5-1.2
							c-57.7-11-80.7,49-48.9,91.6c32.3,43.2,95.8,33.9,103-15.1c4.6-31.5-17.7-65.2-49.6-75.2C416.1,431.3,420.4,433.1,424.4,435.4
							"/>
						<g>
							<path class="st9" d="M458.5,476.3c0.8,2.5,2.1,6.2,3.1,12.1l0.8,6c0.1,2,0.3,4.7,0.3,6.7l-0.3,6.2c-0.3,2.2-0.6,5.2-1,7.3
								l-1.3,5.8c-0.6,1.9-1.3,4.4-1.9,6.2l-2.2,5.4c-0.9,1.7-2,4.1-2.9,5.8l-3,4.9c-1.2,1.6-2.7,3.8-3.9,5.3l-3.6,4.2
								c-1.5,1.5-3.4,3.5-4.9,4.9l-4,3.3c-1.9,1.4-4.4,3.2-6.3,4.4l-3.8,2.2c-5,2.6-5.3,2.7-8.6,4l-2.7,1c-3.8,1.3-7.8,2.6-15,3.6
								l-2,0.2c-0.6,0.1-1.3,0.1-1.9,0.2l-1.8,0.1c-0.5,0-1.2,0.1-1.7,0.1l-1.7,0c-0.5,0-1.1,0-1.6,0l-1.6,0c-0.5,0-1.1,0-1.6-0.1
								l-1.7-0.1c-0.5,0-1.2-0.1-1.7-0.1l-1.8-0.2c-0.6-0.1-1.3-0.2-1.9-0.3l-2.1-0.3c-0.7-0.1-1.6-0.3-2.2-0.4l-2.5-0.6
								c-0.8-0.2-2-0.5-2.8-0.7l-3.1-1c-1.1-0.4-2.7-0.9-3.8-1.4l-3.9-1.6c-1.8-0.9-4.1-2-5.8-3l-4.3-2.6c-2-1.4-4.6-3.3-6.5-4.8
								l-4.1-3.6c-1.5-1.5-3.5-3.5-4.9-5.1l-3.6-4.4c-1.1-1.7-2.7-3.8-3.8-5.5l-2.8-5c-0.8-1.8-2-4.1-2.7-5.9l-2-5.5
								c-0.5-1.9-1.3-4.4-1.7-6.3l-1.1-5.9c-0.3-3.3-0.7-7.7-0.8-11l0.3-6.2c0.2-2,0.5-4.6,0.8-6.6l1.3-5.9c0.6-1.9,1.2-4.4,1.9-6.2
								l2.2-5.5c0.9-1.8,1.9-4.1,2.9-5.8l2.9-4.9c1.1-1.6,2.6-3.8,3.8-5.4l3.6-4.2c1.5-1.5,3.4-3.5,4.9-4.9l4-3.4
								c1.8-1.4,4.3-3.2,6.2-4.4l3.8-2.3c5.1-2.7,5.3-2.8,8.4-4.1l2.8-1.1c5-1.7,8.5-2.8,15.8-3.9l2-0.2c0.6-0.1,1.3-0.1,1.9-0.2
								l1.8-0.1c0.5,0,1.2-0.1,1.7-0.1l1.7,0c0.5,0,1.1,0,1.6,0l1.6,0c0.5,0,1.1,0,1.6,0.1l1.7,0.1c0.5,0,1.2,0.1,1.7,0.1l1.8,0.2
								c0.6,0.1,1.3,0.2,1.9,0.3l2.1,0.3c0.7,0.1,1.6,0.3,2.2,0.4l2.5,0.6c0.8,0.2,2,0.5,2.8,0.7l3.1,1c1.1,0.4,2.7,0.9,3.8,1.4
								l3.9,1.6c1.8,0.9,4.1,2,5.8,3c-0.6-0.3-1.1-0.6-1.7-0.9c-1.3-0.7-3.1-1.5-4.4-2.2c-52-22.1-89.7,23.4-74,68.7
								c18.2,52.8,89.1,68.2,111.5,24.2c7.9-15.5,8.6-32.3,2-51.2C457.9,474.6,458.3,475.6,458.5,476.3"/>
							<path class="st9" d="M424.4,435.4c1.2,0.7,2.8,1.7,4,2.4c-1.4-0.8-3.2-1.9-4.5-2.7l-1.2-0.6
								C423.3,434.7,423.8,435,424.4,435.4"/>
						</g>
						<path class="st10" d="M462.7,501.2c-0.3,8-0.4,8.5-1.2,13.5l-1.3,5.8c-0.6,1.9-1.3,4.4-1.9,6.2l-2.2,5.4
							c-0.9,1.7-2,4.1-2.9,5.8l-3,4.9c-1.2,1.6-2.7,3.8-3.9,5.3l-3.6,4.2c-1.5,1.5-3.4,3.5-4.9,4.9l-4,3.3c-1.9,1.4-4.4,3.2-6.3,4.4
							l-3.8,2.2c-5,2.6-5.3,2.7-8.6,4l-2.7,1c-3.8,1.3-7.8,2.6-15,3.6l-2,0.2c-0.6,0.1-1.3,0.1-1.9,0.2l-1.8,0.1
							c-0.5,0-1.2,0.1-1.7,0.1l-1.7,0c-0.5,0-1.1,0-1.6,0l-1.6,0c-0.5,0-1.1,0-1.6-0.1l-1.7-0.1c-0.5,0-1.2-0.1-1.7-0.1l-1.8-0.2
							c-0.6-0.1-1.3-0.2-1.9-0.3l-2.1-0.3c-0.7-0.1-1.6-0.3-2.2-0.4l-2.5-0.6c-0.8-0.2-2-0.5-2.8-0.7l-3.1-1
							c-1.1-0.4-2.7-0.9-3.8-1.4l-3.9-1.6c-1.8-0.9-4.1-2-5.8-3l-4.3-2.6c-2-1.4-4.6-3.3-6.5-4.8l-4.1-3.6c-1.5-1.5-3.5-3.5-4.9-5.1
							l-3.6-4.4c-1.1-1.7-2.7-3.8-3.8-5.5l-2.8-5c-0.8-1.8-2-4.1-2.7-5.9l-2-5.5c-0.5-1.9-1.3-4.4-1.7-6.3l-1.1-5.9
							c-0.3-3.3-0.7-7.7-0.8-11l0.3-6.2c0.2-2,0.5-4.6,0.8-6.6l1.3-5.9c0.6-1.9,1.2-4.4,1.9-6.2l2.2-5.5c0.9-1.8,1.9-4.1,2.9-5.8
							l2.9-4.9c1.1-1.6,2.6-3.8,3.8-5.4l3.6-4.2c1.5-1.5,3.4-3.5,4.9-4.9l4-3.4c1.8-1.4,4.3-3.2,6.2-4.4l3.8-2.3
							c5.1-2.7,5.3-2.8,8.4-4.1l2.8-1.1c5-1.7,8.5-2.8,15.8-3.9l2-0.2c0.6-0.1,1.3-0.1,1.9-0.2l1.8-0.1c0.5,0,1.2-0.1,1.7-0.1l1.7,0
							c0.5,0,1.1,0,1.6,0l1.6,0c0.5,0,1.1,0,1.6,0.1l1.7,0.1c0.5,0,1.2,0.1,1.7,0.1l1.8,0.2c0.6,0.1,1.3,0.2,1.9,0.3l2.1,0.3
							c0.7,0.1,1.6,0.3,2.2,0.4l2.5,0.6c0.8,0.2,2,0.5,2.8,0.7l3.1,1l1.9,0.7l-0.8-0.3c-50.1-16-93.9,28.5-64.1,86.7
							c23.2,45.3,93.9,54.3,111.7,2.3c3-8.7,3.8-18.5,2.3-29.2l0.7,6.1L462.7,501.2"/>
						<path class="st11" d="M461.4,514.7c-1.7,7.7-1.8,7.9-3.3,12.1l-2.2,5.4c-0.9,1.7-2,4.1-2.9,5.8l-3,4.9
							c-1.2,1.6-2.7,3.8-3.9,5.3l-3.6,4.2c-1.5,1.5-3.4,3.5-4.9,4.9l-4,3.3c-1.9,1.4-4.4,3.2-6.3,4.4l-3.8,2.2c-5,2.6-5.3,2.7-8.6,4
							l-2.7,1c-3.8,1.3-7.8,2.6-15,3.6l-2,0.2c-0.6,0.1-1.3,0.1-1.9,0.2l-1.8,0.1c-0.5,0-1.2,0.1-1.7,0.1l-1.7,0c-0.5,0-1.1,0-1.6,0
							l-1.6,0c-0.5,0-1.1,0-1.6-0.1l-1.7-0.1c-0.5,0-1.2-0.1-1.7-0.1l-1.8-0.2c-0.6-0.1-1.3-0.2-1.9-0.3l-2.1-0.3
							c-0.7-0.1-1.6-0.3-2.2-0.4l-2.5-0.6c-0.8-0.2-2-0.5-2.8-0.7l-3.1-1c-1.1-0.4-2.7-0.9-3.8-1.4l-3.9-1.6c-1.8-0.9-4.1-2-5.8-3
							l-4.3-2.6c-2-1.4-4.6-3.3-6.5-4.8l-4.1-3.6c-1.5-1.5-3.5-3.5-4.9-5.1l-3.6-4.4c-1.1-1.7-2.7-3.8-3.8-5.5l-2.8-5
							c-0.8-1.8-2-4.1-2.7-5.9l-2-5.5c-0.5-1.9-1.3-4.4-1.7-6.3l-1.1-5.9c-0.3-3.3-0.7-7.7-0.8-11l0.3-6.2c0.2-2,0.5-4.6,0.8-6.6
							l1.3-5.9c0.6-1.9,1.2-4.4,1.9-6.2l2.2-5.5c0.9-1.8,1.9-4.1,2.9-5.8l2.9-4.9c1.1-1.6,2.6-3.8,3.8-5.4l3.6-4.2
							c1.5-1.5,3.4-3.5,4.9-4.9l4-3.4c1.8-1.4,4.3-3.2,6.2-4.4l3.8-2.3c5.1-2.7,5.3-2.8,8.4-4.1l2.8-1.1c5-1.7,8.5-2.8,15.8-3.9
							l2-0.2c0.6-0.1,1.3-0.1,1.9-0.2l1.8-0.1c0.5,0,1.2-0.1,1.7-0.1l1.7,0c0.5,0,1.1,0,1.6,0l1.6,0c0.5,0,1.1,0,1.6,0.1l1.7,0.1
							c0.5,0,1.2,0.1,1.7,0.1l1.8,0.2c0.6,0.1,1.3,0.2,1.9,0.3l-0.2,0c-60.1-7.7-81.4,61-45.6,103.1c37,43.5,106.8,35.9,110.3-25.5
							c0-0.5,0-1.2,0-1.7l-0.3,6.1C462.1,510.2,461.8,512.8,461.4,514.7"/>
						<path class="st12" d="M461.4,514.7c-0.7,3.5-1.4,6.8-3.3,12.1l-2.2,5.4c-0.9,1.7-2,4.1-2.9,5.8l-3,4.9
							c-1.2,1.6-2.7,3.8-3.9,5.3l-3.6,4.2c-1.5,1.5-3.4,3.5-4.9,4.9l-4,3.3c-1.9,1.4-4.4,3.2-6.3,4.4l-3.8,2.2c-5,2.6-5.3,2.7-8.6,4
							l-2.7,1c-3.8,1.3-7.8,2.6-15,3.6l-2,0.2c-0.6,0.1-1.3,0.1-1.9,0.2l-1.8,0.1c-0.5,0-1.2,0.1-1.7,0.1l-1.7,0c-0.5,0-1.1,0-1.6,0
							l-1.6,0c-0.5,0-1.1,0-1.6-0.1l-1.7-0.1c-0.5,0-1.2-0.1-1.7-0.1l-1.8-0.2c-0.6-0.1-1.3-0.2-1.9-0.3l-2.1-0.3
							c-0.7-0.1-1.6-0.3-2.2-0.4l-2.5-0.6c-0.8-0.2-2-0.5-2.8-0.7l-3.1-1c-1.1-0.4-2.7-0.9-3.8-1.4l-3.9-1.6c-1.8-0.9-4.1-2-5.8-3
							l-4.3-2.6c-2-1.4-4.6-3.3-6.5-4.8l-4.1-3.6c-1.5-1.5-3.5-3.5-4.9-5.1l-3.6-4.4c-1.1-1.7-2.7-3.8-3.8-5.5l-2.8-5
							c-0.8-1.8-2-4.1-2.7-5.9l-2-5.5c-0.5-1.9-1.3-4.4-1.7-6.3l-1.1-5.9c-0.3-3.3-0.7-7.7-0.8-11l0.3-6.2c0.2-2,0.5-4.6,0.8-6.6
							l1.3-5.9c0.6-1.9,1.2-4.4,1.9-6.2l2.2-5.5c0.9-1.8,1.9-4.1,2.9-5.8l2.9-4.9c1.1-1.6,2.6-3.8,3.8-5.4l3.6-4.2
							c1.5-1.5,3.4-3.5,4.9-4.9l4-3.4c1.8-1.4,4.3-3.2,6.2-4.4l3.8-2.3c5.1-2.7,5.3-2.8,8.4-4.1l2.8-1.1c5-1.7,8.5-2.8,15.8-3.9
							l2-0.2c0.6-0.1,1.3-0.1,1.9-0.2l1.8-0.1l1.4-0.1l-1.6,0.1c-52.2,4.1-73,74-20.5,117.7c38.3,31.9,91.3,16.5,99.5-29
							C461.5,514.5,461.5,514.6,461.4,514.7"/>
						<path class="st13" d="M458.2,526.7c-1.2,3.3-2.4,6.3-5.1,11.2l-3,4.9c-1.2,1.6-2.7,3.8-3.9,5.3l-3.6,4.2
							c-1.5,1.5-3.4,3.5-4.9,4.9l-4,3.3c-1.9,1.4-4.4,3.2-6.3,4.4l-3.8,2.2c-5,2.6-5.3,2.7-8.6,4l-2.7,1c-3.8,1.3-7.8,2.6-15,3.6
							l-2,0.2c-0.6,0.1-1.3,0.1-1.9,0.2l-1.8,0.1c-0.5,0-1.2,0.1-1.7,0.1l-1.7,0c-0.5,0-1.1,0-1.6,0l-1.6,0c-0.5,0-1.1,0-1.6-0.1
							l-1.7-0.1c-0.5,0-1.2-0.1-1.7-0.1l-1.8-0.2c-0.6-0.1-1.3-0.2-1.9-0.3l-2.1-0.3c-0.7-0.1-1.6-0.3-2.2-0.4l-2.5-0.6
							c-0.8-0.2-2-0.5-2.8-0.7l-3.1-1c-1.1-0.4-2.7-0.9-3.8-1.4l-3.9-1.6c-1.8-0.9-4.1-2-5.8-3l-4.3-2.6c-2-1.4-4.6-3.3-6.5-4.8
							l-4.1-3.6c-1.5-1.5-3.5-3.5-4.9-5.1l-3.6-4.4c-1.1-1.7-2.7-3.8-3.8-5.5l-2.8-5c-0.8-1.8-2-4.1-2.7-5.9l-2-5.5
							c-0.5-1.9-1.3-4.4-1.7-6.3l-1.1-5.9c-0.3-3.3-0.7-7.7-0.8-11l0.3-6.2c0.2-2,0.5-4.6,0.8-6.6l1.3-5.9c0.6-1.9,1.2-4.4,1.9-6.2
							l2.2-5.5c0.9-1.8,1.9-4.1,2.9-5.8l2.9-4.9c1.1-1.6,2.6-3.8,3.8-5.4l3.6-4.2c1.5-1.5,3.4-3.5,4.9-4.9l4-3.4
							c1.8-1.4,4.3-3.2,6.2-4.4l3.8-2.3c5.1-2.7,5.3-2.8,8.4-4.1l2.8-1.1c4.2-1.4,5.6-1.9,10.6-3l-1.8,0.4
							c-51.9,12.9-61.2,90.4-1.1,126.1c27.2,16.1,73.4,15.6,89.5-27.2C458.3,526.5,458.2,526.6,458.2,526.7"/>
						<path class="st14" d="M446.1,548.2c-4.6,5.4-5,5.8-8.6,9.1l-4,3.3c-1.9,1.4-4.4,3.2-6.3,4.4l-3.8,2.2c-5,2.6-5.3,2.7-8.6,4
							l-2.7,1c-3.8,1.3-7.8,2.6-15,3.6l-2,0.2c-0.6,0.1-1.3,0.1-1.9,0.2l-1.8,0.1c-0.5,0-1.2,0.1-1.7,0.1l-1.7,0c-0.5,0-1.1,0-1.6,0
							l-1.6,0c-0.5,0-1.1,0-1.6-0.1l-1.7-0.1c-0.5,0-1.2-0.1-1.7-0.1l-1.8-0.2c-0.6-0.1-1.3-0.2-1.9-0.3l-2.1-0.3
							c-0.7-0.1-1.6-0.3-2.2-0.4l-2.5-0.6c-0.8-0.2-2-0.5-2.8-0.7l-3.1-1c-1.1-0.4-2.7-0.9-3.8-1.4l-3.9-1.6c-1.8-0.9-4.1-2-5.8-3
							l-4.3-2.6c-2-1.4-4.6-3.3-6.5-4.8l-4.1-3.6c-1.5-1.5-3.5-3.5-4.9-5.1l-3.6-4.4c-1.1-1.7-2.7-3.8-3.8-5.5l-2.8-5
							c-0.8-1.8-2-4.1-2.7-5.9l-2-5.5c-0.5-1.9-1.3-4.4-1.7-6.3l-1.1-5.9c-0.3-3.3-0.7-7.7-0.8-11l0.3-6.2c0.2-2,0.5-4.6,0.8-6.6
							l1.3-5.9c0.6-1.9,1.2-4.4,1.9-6.2l2.2-5.5c0.9-1.8,1.9-4.1,2.9-5.8l2.9-4.9c1.1-1.6,2.6-3.8,3.8-5.4l3.6-4.2
							c1.5-1.5,3.4-3.5,4.9-4.9l4-3.4c1.8-1.4,4.3-3.2,6.2-4.4l3.8-2.3c1.9-1,4.4-2.3,6.3-3.2l-2.5,1.2
							c-48.2,25.8-39.2,107.7,29,131.9c4.2,1.5,41.6,13.5,67.6-23l-3.3,4.6L446.1,548.2"/>
						<path class="st15" d="M433.8,442.4c38.8,29.9,33.7,89.3-8.6,99.3C379,552.7,333,495.3,355,454
							C370,425.6,405.4,420.4,433.8,442.4"/>
						<path class="st16" d="M434.3,443.3c37.5,29.3,32.5,85.6-8.4,95.6c-44.4,10.8-89.1-44.3-68.3-84.3
							C371.8,427.1,406.9,421.9,434.3,443.3"/>
						<path class="st17" d="M446.1,456.1c27.3,36.3,7.5,83.3-34.1,81.2c-46.6-2.4-75.1-63.8-43.6-93.9
							C394.4,418.8,430.2,435,446.1,456.1"/>
						<path class="st18" d="M446,457c25.8,35.1,6.3,80-33.7,77.4c-40.9-2.6-72.8-58.1-41.1-90.5C392.2,422.5,428.6,433.3,446,457"/>
						<path class="st19" d="M445.7,457.9c24.2,33.8,5,76.4-33.2,73.6c-39.1-2.9-69.4-57.2-38.4-87.1
							C396.5,422.8,431.4,438,445.7,457.9"/>
						<path class="st20" d="M437,449.7c35.1,33.9,13.6,82-24.3,78.8c-34.9-3-67.5-51-35.4-83.8C389.8,431.9,418,431.3,437,449.7"/>
						<path class="st21" d="M444.4,459.7c20.8,30.2,2.2,68.8-31.7,65.6c-36-3.4-62.2-54.5-31.9-80.4
							C399.7,428.7,430.5,439.6,444.4,459.7"/>
						<path class="st22" d="M450.6,476c8.2,30.1-21.3,58.6-53.3,40.8c-21.8-12.1-26.6-31.4-26.8-45.5c-0.1-7,7.4-26.6,25.7-31.5
							C417.9,434.1,443.8,451.3,450.6,476"/>
						<path class="st23" d="M445.5,467.3c15.7,35.8-14.6,64.2-48.3,45.4c-31-17.3-31-62.3,0.1-70.8
							C417.8,436.3,439.2,452.9,445.5,467.3"/>
						<path class="st24" d="M447.4,478c4.7,26.5-20.9,47.2-50.3,30.7c-0.2-0.1-20.2-11.7-19.8-36.9l4.1-14.3
							c0.9-1.1,8.6-11.1,16.8-13.4C416.9,439,442.9,452.9,447.4,478"/>
						<path class="st25" d="M445.4,478.9c1.1,7.3-3.5,19.2-3.5,19.2c-2.1,3.6-3.3,5.6-14.6,11.6c-4.7,2.5-22.3,0.7-30.2-5.1
							c-0.9-0.6-12.6-15.5-13.2-16.7c-0.5-1-3.2-15.1-3-16c3.5-22.5,19-26,25.5-26.4C422.3,444.5,442.3,458,445.4,478.9"/>
						<path class="st26" d="M442.1,475.9c3.1,10.9-4.7,23.2-5.3,23.7c-2.1,1.6-9.3,6.3-9.9,6.4c-14.3,2.1-16.3,1.1-21.5-1.7
							c-18.6-9.8-19.9-24.9-20.5-32.2l5.2-14.5c2.9-4,10.7-7.4,10.7-7.5C411.6,445.9,434.7,449.1,442.1,475.9"/>
						<path class="st27" d="M439.9,481.1c0.1,12-12.5,20.8-13.3,21c-1.6,0.4-13.6,0.7-14.5,0.4c-0.6-0.2-14.7-9.9-15.6-10.7
							c-1.1-1-2.7-2.4-3.2-3.9c-0.2-0.7-3.8-15.4-3.8-15.9c-0.1-1.5,1.4-3.3,1.9-4.7c0.8-2.2,1.7-5.2,2.5-7.4
							c1.2-3.6,8.3-7.8,16.5-8.2c0.1,0,8.7,0.6,11,1.8c0.8,0.4,11.5,9.5,13.7,11.7C436,466.2,439.9,479,439.9,481.1"/>
						<path class="st28" d="M436.4,482.2c-0.1,5.1-10.5,13.6-10.6,13.6c-1.5,0.2-13.7,0.4-14.3,0.2c-0.4-0.1-12-8-12.2-8.2
							c-0.9-1.1-5.2-14.7-5.1-15.8c0.1-0.7,0.4-1.6,0.8-2.3c1.4-2.3,3.8-4.9,5.3-7.2c1.1-1.6,1.7-4.3,3.1-5.4c0.2-0.1,8.6-2.1,8.9-2
							c4.2,0.5,11.9,4.6,12,4.6c2.4,1.9,6.2,4.1,7.6,6.8C433.1,468.7,436.4,480.4,436.4,482.2"/>
						<path class="st29" d="M429.9,483.9c-0.8,2.2-3.1,5.3-5.4,5.6c-1,0.1-12.8,0.2-13.9,0.1c-1.3-0.2-2.8-1.3-3.6-2.4l-5.9-15.6
							c0.3-2.5,2.5-5.5,4.5-6.9l9.9-3l12.3,6C428.6,468.5,430.4,482.7,429.9,483.9"/>
						<path class="st30" d="M419.5,471.4c-0.8-0.5-1.9-1.1-2.6-1.6c0.6-0.2,1.3-0.7,1.8-0.7c0.2,0,0.4,0.1,0.5,0.3
							C419.5,470,419.4,470.8,419.5,471.4"/>
					</g>
				</g>
			</g>
		</g>
	</g>
</g>
</svg>
