<?xml version="1.0" encoding="utf-8"?>
<!-- Generator: Adobe Illustrator 19.1.0, SVG Export Plug-In . SVG Version: 6.00 Build 0)  -->
<svg version="1.1" id="Layer_1" xmlns="http://www.w3.org/2000/svg" xmlns:xlink="http://www.w3.org/1999/xlink" x="0px" y="0px"
	 viewBox="0 0 1000 1000" enable-background="new 0 0 1000 1000" xml:space="preserve">
<rect display="none" width="1000" height="1000"/>
<g>
	<polygon fill="#FFFFFF" points="646.853,955.689 500,956.842 533.913,937.986 	"/>
	<polygon fill="#FFFFFF" points="646.853,955.689 533.913,937.986 584.509,929.664 	"/>
	<polygon fill="#FFFFFF" points="584.509,929.664 533.914,937.986 520.165,916.225 	"/>
	<polygon fill="#FFFFFF" points="500,956.842 356.162,957.975 459.987,937.986 	"/>
	<polygon fill="#FFFFFF" points="119.542,499.987 74.647,635.331 51.479,585.139 	"/>
	<polygon fill="#FFFFFF" points="197.221,552.346 74.647,635.331 119.542,499.987 	"/>
	<polygon fill="#FFFFFF" points="356.162,671.368 281.854,686.81 208.494,698.392 270.749,575.427 	"/>
	<polygon fill="#FFFFFF" points="381.471,507.571 369.031,656.848 356.162,671.368 	"/>
	<polygon fill="#FFFFFF" points="381.471,507.571 381.042,669.717 369.031,656.848 	"/>
	<polygon fill="#FFFFFF" points="481.846,661.425 460.111,672.29 446.101,660.567 	"/>
	<polygon fill="#FFFFFF" points="568.71,700.172 547.335,674.006 545.903,655.703 568.449,698.392 	"/>
	<polygon fill="#FFFFFF" points="497.92,750.386 481.846,782.103 472.409,748.932 497.521,748.944 	"/>
	<polygon fill="#FFFFFF" points="439.616,735.776 409.782,714.757 425.795,699.744 	"/>
	<polygon fill="#FFFFFF" points="381.471,507.571 197.221,552.346 380.506,504.169 	"/>
	<polygon fill="#FFFFFF" points="380.506,504.169 197.221,552.346 119.542,499.987 378.043,504.131 	"/>
	<polygon fill="#FFFFFF" points="381.471,507.571 270.749,575.427 197.221,552.346 	"/>
	<polygon fill="#FFFFFF" points="515.592,767.806 513.877,791.253 481.846,782.103 	"/>
	<polygon fill="#FFFFFF" points="444.099,768.805 409.782,714.757 439.616,735.776 	"/>
	<polygon fill="#FFFFFF" points="473.268,819.422 444.099,768.805 439.616,735.776 	"/>
	<polygon fill="#FFFFFF" points="425.795,699.744 409.782,714.757 405.921,687.304 	"/>
	<polygon fill="#FFFFFF" points="534.466,672.003 495.573,669.146 511.586,662.283 	"/>
	<polygon fill="#FFFFFF" points="534.466,672.003 530.177,693.738 525.6,715.186 506.439,713.47 	"/>
	<polygon fill="#FFFFFF" points="541.33,729.483 527.603,744.355 525.6,715.186 	"/>
	<polygon fill="#FFFFFF" points="543.329,695.741 541.33,729.483 525.6,715.186 	"/>
	<polygon fill="#FFFFFF" points="563.348,728.269 539.756,786.607 539.67,785.415 536.753,745.783 	"/>
	<polygon fill="#FFFFFF" points="539.756,786.607 513.877,791.252 527.603,768.947 539.67,785.415 	"/>
	<polygon fill="#FFFFFF" points="539.756,786.607 516.408,828.559 515.876,829.576 515.876,829.601 515.365,830.601 
		513.877,791.253 	"/>
	<polygon fill="#FFFFFF" points="513.877,791.253 477.128,841.299 473.267,819.422 	"/>
	<polygon fill="#FFFFFF" points="515.365,830.601 477.128,905.643 477.128,841.299 	"/>
	<polygon fill="#FFFFFF" points="520.165,916.225 477.128,905.643 515.365,830.601 515.876,829.601 517.879,866.466 	"/>
	<polygon fill="#FFFFFF" points="520.165,916.225 471.981,921.514 477.128,905.643 	"/>
	<polygon fill="#FFFFFF" points="533.914,937.986 500,956.842 520.165,916.225 	"/>
	<polygon fill="#FFFFFF" points="500,956.842 459.987,937.986 471.981,921.514 	"/>
	<polygon fill="#FFFFFF" points="933.074,431.985 916.345,500 857.612,450.091 839.785,394.584 	"/>
	<polygon fill="#FFFFFF" points="984.553,408.821 933.074,431.985 839.785,394.584 	"/>
	<polygon fill="#FFFFFF" points="1000,323.879 984.553,408.821 839.785,394.584 	"/>
	<polygon fill="#FFFFFF" points="1000,323.879 839.785,394.584 906.046,289.129 	"/>
	<polygon fill="#FFFFFF" points="906.046,289.129 839.785,394.584 859.714,211.909 	"/>
	<polygon fill="#FFFFFF" points="747.872,284.295 655.081,65.193 707.851,51.033 	"/>
	<polygon fill="#FFFFFF" points="752.896,111.524 747.872,284.295 707.851,51.033 	"/>
	<polygon fill="#FFFFFF" points="796.653,155.282 747.872,284.295 752.896,111.524 	"/>
	<polygon fill="#FFFFFF" points="808.235,193.892 747.872,284.295 796.653,155.282 	"/>
	<polygon fill="#FFFFFF" points="859.714,211.908 839.785,394.584 808.235,193.892 	"/>
	<polygon fill="#FFFFFF" points="956.238,567.119 758.094,464.676 916.345,500 953.664,511.779 	"/>
	<polygon fill="#FFFFFF" points="956.238,567.119 925.353,643.053 758.094,464.676 	"/>
	<polygon fill="#FFFFFF" points="925.353,643.053 846.845,689.384 758.094,464.675 	"/>
	<polygon fill="#FFFFFF" points="846.845,689.384 745.174,662.36 758.094,464.675 	"/>
	<polygon fill="#FFFFFF" points="758.094,464.675 745.174,662.36 643.499,673.942 674.019,627.679 675.344,625.105 	"/>
	<polygon fill="#FFFFFF" points="674.019,627.679 643.499,673.942 610.748,672.29 	"/>
	<polygon fill="#FFFFFF" points="674.019,567.625 610.748,672.29 570.211,537.598 	"/>
	<polygon fill="#FFFFFF" points="610.748,672.29 550.479,575.427 570.211,537.598 	"/>
	<polygon fill="#FFFFFF" points="610.748,672.29 568.71,700.172 568.449,698.392 550.479,575.427 	"/>
	<polygon fill="#FFFFFF" points="550.479,575.427 505.01,597.365 495.573,581.064 	"/>
	<polygon fill="#FFFFFF" points="446.102,660.567 405.921,687.304 381.042,669.717 	"/>
	<polygon fill="#FFFFFF" points="486.136,606.518 481.846,640.548 381.042,669.717 	"/>
	<polygon fill="#FFFFFF" points="495.573,581.064 381.042,669.717 392.113,549.094 	"/>
	<polygon fill="#FFFFFF" points="511.586,523.014 495.573,581.064 401.203,450.091 	"/>
	<polygon fill="#FFFFFF" points="624.196,83.209 602.593,174.594 576.577,84.496 	"/>
	<polygon fill="#FFFFFF" points="602.593,174.594 599.153,170.248 599.149,170.244 564.991,63.906 576.577,84.496 	"/>
	<polygon fill="#FFFFFF" points="599.149,170.244 525.094,76.775 564.991,63.906 	"/>
	<polygon fill="#FFFFFF" points="525.094,76.774 450.794,140.792 510.938,42.025 	"/>
	<polygon fill="#FFFFFF" points="477.128,53.607 450.794,140.792 427.283,74.201 	"/>
	<polygon fill="#FFFFFF" points="450.794,140.792 368.083,102.516 427.283,74.201 	"/>
	<polygon fill="#FFFFFF" points="334.62,83.209 290.721,183.842 290.716,183.846 290.099,185.266 275.42,62.619 	"/>
	<polygon fill="#FFFFFF" points="368.083,102.516 290.721,183.842 334.62,83.209 	"/>
	<polygon fill="#FFFFFF" points="290.099,185.266 240.507,365.994 173.281,301.488 	"/>
	<polygon fill="#FFFFFF" points="290.099,185.266 258.686,85.783 275.42,62.619 	"/>
	<polygon fill="#FFFFFF" points="290.099,185.266 238.564,134.688 258.686,85.783 	"/>
	<polygon fill="#FFFFFF" points="290.099,185.266 204.634,164.29 238.564,134.688 	"/>
	<polygon fill="#FFFFFF" points="290.099,185.266 204.634,209.335 204.634,164.29 	"/>
	<polygon fill="#FFFFFF" points="204.634,209.335 173.281,301.487 163.449,209.335 	"/>
	<polygon fill="#FFFFFF" points="173.281,301.487 137.708,231.216 163.449,209.335 	"/>
	<polygon fill="#FFFFFF" points="173.281,301.487 113.257,259.527 137.708,231.216 	"/>
	<polygon fill="#FFFFFF" points="173.281,301.487 99.102,303.285 113.257,259.527 	"/>
	<polygon fill="#FFFFFF" points="173.281,301.487 57.918,317.445 99.102,303.285 	"/>
	<polygon fill="#FFFFFF" points="173.281,301.487 0,358.629 16.734,317.445 57.918,317.445 	"/>
	<polygon fill="#FFFFFF" points="173.281,301.487 24.455,407.534 0,358.629 	"/>
	<polygon fill="#FFFFFF" points="26.295,407.534 81.081,448.718 24.455,407.534 173.281,301.488 240.507,365.994 	"/>
	<polygon fill="#FFFFFF" points="150.967,412.724 87.516,498.91 81.081,448.718 	"/>
	<polygon fill="#FFFFFF" points="380.506,504.169 378.043,504.131 119.542,499.987 150.967,412.724 376.491,502.569 	"/>
	<polygon fill="#FFFFFF" points="401.203,450.091 392.113,549.094 381.042,669.717 381.471,507.571 	"/>
	<polygon fill="#FFFFFF" points="471.981,921.514 459.987,937.986 419.657,937.986 	"/>
	<polygon fill="#FFFFFF" points="459.987,937.986 356.162,957.975 419.657,937.986 	"/>
	<polygon fill="#FFFFFF" points="563.516,324.205 511.586,523.014 506.439,461.244 475.7,284.218 562.122,323.879 	"/>
	<polygon fill="#FFFFFF" points="600.389,174.1 475.7,284.218 450.794,140.792 	"/>
	<polygon fill="#FFFFFF" points="602.593,174.594 563.516,324.205 562.122,323.879 475.7,284.218 600.389,174.1 	"/>
	<polygon fill="#FFFFFF" points="716.087,433.662 675.344,625.105 674.019,627.679 674.019,567.625 635.288,354.511 	"/>
	<polygon fill="#FFFFFF" points="758.094,464.675 675.344,625.105 716.087,433.662 716.717,434.28 	"/>
	<polygon fill="#FFFFFF" points="916.345,500 758.094,464.675 857.612,450.091 	"/>
	<polygon fill="#FFFFFF" points="857.612,450.091 758.094,464.675 819.006,435.506 	"/>
	<polygon fill="#FFFFFF" points="857.612,450.091 819.006,435.506 839.785,394.584 	"/>
	<polygon fill="#FFFFFF" points="674.019,567.625 570.211,537.598 588.725,330.06 635.288,354.511 	"/>
	<polygon fill="#FFFFFF" points="839.785,394.584 819.006,435.506 758.094,464.675 	"/>
	<polygon fill="#FFFFFF" points="208.494,698.392 74.647,635.331 197.221,552.346 	"/>
	<polygon fill="#FFFFFF" points="270.749,575.427 208.494,698.392 197.221,552.346 	"/>
	<polygon fill="#FFFFFF" points="381.471,507.571 356.162,671.368 270.749,575.427 	"/>
	<polygon fill="#FFFFFF" points="839.785,394.584 758.094,464.675 747.872,284.295 	"/>
	<polygon fill="#FFFFFF" points="839.785,394.584 747.872,284.295 808.235,193.892 	"/>
	<polygon fill="#FFFFFF" points="602.593,174.594 600.389,174.1 450.794,140.792 525.094,76.774 599.149,170.244 599.153,170.248 	
		"/>
	<polygon fill="#FFFFFF" points="506.439,461.244 401.203,450.091 430.663,266.352 475.7,284.218 	"/>
	<polygon fill="#FFFFFF" points="475.7,284.218 430.663,266.352 450.794,140.792 	"/>
	<polygon fill="#FFFFFF" points="510.938,42.025 450.794,140.792 477.128,53.607 	"/>
	<polygon fill="#FFFFFF" points="510.938,42.025 450.794,140.792 477.128,53.607 	"/>
	<polygon fill="#FFFFFF" points="345.653,317.681 430.663,266.352 401.203,450.091 	"/>
	<polygon fill="#FFFFFF" points="450.794,140.792 345.649,317.676 290.099,185.266 	"/>
	<polygon fill="#FFFFFF" points="450.794,140.792 290.099,185.266 290.716,183.846 290.721,183.842 368.083,102.516 	"/>
	<polygon fill="#FFFFFF" points="401.203,450.091 381.471,507.571 380.506,504.169 338.078,354.511 345.649,317.681 
		345.653,317.681 	"/>
	<polygon fill="#FFFFFF" points="380.506,504.169 376.491,502.569 240.507,365.994 290.099,185.266 338.078,354.511 	"/>
	<polygon fill="#FFFFFF" points="290.099,185.266 173.281,301.488 204.634,209.335 	"/>
	<polygon fill="#FFFFFF" points="290.099,185.266 173.281,301.488 204.634,209.335 	"/>
	<polygon fill="#FFFFFF" points="150.967,412.724 119.542,499.987 87.516,498.91 	"/>
	<polygon fill="#FFFFFF" points="150.967,412.724 119.542,499.987 87.516,498.91 	"/>
	<polygon fill="#FFFFFF" points="376.491,502.569 150.967,412.724 240.507,365.994 	"/>
	<polygon fill="#FFFFFF" points="376.491,502.569 150.967,412.724 240.507,365.994 	"/>
	<polygon fill="#FFFFFF" points="240.507,365.994 150.967,412.724 81.081,448.718 26.295,407.534 	"/>
	<polygon fill="#FFFFFF" points="240.507,365.994 150.967,412.724 81.081,448.718 26.295,407.534 	"/>
	<polygon fill="#FFFFFF" points="119.542,499.987 56.631,527.221 87.516,498.91 	"/>
	<polygon fill="#FFFFFF" points="119.542,499.987 51.479,585.139 56.631,527.221 	"/>
	<polygon fill="#FFFFFF" points="655.081,65.193 602.593,174.594 624.196,83.209 	"/>
	<polygon fill="#FFFFFF" points="747.872,284.295 602.593,174.594 655.081,65.193 	"/>
	<polygon fill="#FFFFFF" points="511.586,523.014 401.203,450.091 506.439,461.244 	"/>
	<polygon fill="#FFFFFF" points="520.165,916.225 500,956.842 471.981,921.514 	"/>
	<polygon fill="#FFFFFF" points="674.019,567.625 674.019,627.679 610.748,672.29 	"/>
	<polygon fill="#FFFFFF" points="550.479,575.427 495.573,581.064 511.586,523.014 	"/>
	<polygon fill="#FFFFFF" points="570.211,537.598 550.479,575.427 511.586,523.014 	"/>
	<polygon fill="#FFFFFF" points="588.725,330.06 570.211,537.598 511.586,523.014 563.516,324.205 	"/>
	<polygon fill="#FFFFFF" points="602.593,174.594 588.725,330.06 563.516,324.205 	"/>
	<polygon fill="#FFFFFF" points="568.449,698.392 545.903,655.703 550.479,575.427 	"/>
	<polygon fill="#FFFFFF" points="511.586,627.679 545.903,655.703 511.586,662.283 511.586,629.107 505.01,597.365 550.479,575.427 
			"/>
	<polygon fill="#FFFFFF" points="545.903,655.703 534.466,672.003 511.586,662.283 	"/>
	<polygon fill="#FFFFFF" points="563.348,728.269 536.753,745.783 541.33,729.483 	"/>
	<polygon fill="#FFFFFF" points="568.71,700.172 563.348,728.269 541.33,729.483 	"/>
	<polygon fill="#FFFFFF" points="515.365,830.601 477.128,841.299 513.877,791.253 	"/>
	<polygon fill="#FFFFFF" points="515.592,767.806 481.846,782.103 497.92,750.386 498.644,748.953 498.649,748.944 	"/>
	<polygon fill="#FFFFFF" points="568.71,700.172 541.33,729.483 543.329,695.741 	"/>
	<polygon fill="#FFFFFF" points="525.6,715.186 498.649,748.944 506.439,713.47 	"/>
	<polygon fill="#FFFFFF" points="568.71,700.172 543.329,695.741 547.335,674.006 	"/>
	<polygon fill="#FFFFFF" points="481.847,640.548 446.102,660.567 381.042,669.717 	"/>
	<polygon fill="#FFFFFF" points="446.102,660.567 425.795,699.744 405.921,687.304 	"/>
	<polygon fill="#FFFFFF" points="513.877,791.253 473.267,819.422 481.846,782.103 	"/>
	<polygon fill="#FFFFFF" points="481.846,782.103 473.267,819.422 439.616,735.776 468.407,769.234 	"/>
	<polygon fill="#FFFFFF" points="527.603,744.355 498.649,748.944 525.6,715.186 	"/>
	<polygon fill="#FFFFFF" points="527.603,744.355 515.592,767.806 498.649,748.944 	"/>
	<polygon fill="#FFFFFF" points="534.466,672.003 506.439,692.022 498.147,679.154 	"/>
	<polygon fill="#FFFFFF" points="498.147,679.154 462.114,696.882 460.111,672.29 	"/>
	<polygon fill="#FFFFFF" points="498.147,679.154 466.691,713.47 462.114,696.882 	"/>
	<polygon fill="#FFFFFF" points="498.147,679.154 484.708,702.317 466.691,713.47 	"/>
	<polygon fill="#FFFFFF" points="497.521,748.944 472.409,748.932 484.708,702.317 	"/>
	<polygon fill="#FFFFFF" points="472.409,748.932 451.249,727.767 466.691,713.47 	"/>
	<polygon fill="#FFFFFF" points="466.692,713.47 451.249,727.767 435.232,707.752 	"/>
	<polygon fill="#FFFFFF" points="466.692,713.47 435.232,707.752 448.958,688.591 	"/>
	<polygon fill="#FFFFFF" points="448.958,688.591 435.232,707.752 446.102,660.567 	"/>
	<polygon fill="#FFFFFF" points="446.102,660.567 435.232,707.752 425.795,699.744 	"/>
	<polygon fill="#FFFFFF" points="481.846,640.548 481.846,661.425 446.101,660.567 	"/>
	<polygon fill="#FFFFFF" points="495.573,669.146 460.111,672.29 481.846,661.425 	"/>
	<polygon fill="#FFFFFF" points="498.147,679.154 460.111,672.29 495.573,669.146 	"/>
	<polygon fill="#FFFFFF" points="550.479,575.427 545.903,655.703 511.586,627.679 	"/>
	<polygon fill="#FFFFFF" points="495.573,581.064 392.113,549.094 401.203,450.091 	"/>
	<polygon fill="#FFFFFF" points="495.573,581.064 486.136,606.518 381.042,669.717 	"/>
	<polygon fill="#FFFFFF" points="539.67,785.415 527.603,768.947 536.753,745.783 	"/>
	<polygon fill="#FFFFFF" points="534.466,672.003 506.439,713.47 506.439,692.022 	"/>
	<polygon fill="#FFFFFF" points="534.466,672.003 498.147,679.154 495.573,669.146 	"/>
	<polygon fill="#FFFFFF" points="484.708,702.317 472.409,748.932 466.692,713.47 	"/>
	<polygon fill="#FFFFFF" points="345.649,317.676 345.649,317.681 338.078,354.511 290.099,185.266 	"/>
	<polygon fill="#FFFFFF" points="635.288,354.511 588.725,330.06 602.593,174.594 	"/>
	<polygon fill="#FFFFFF" points="747.872,284.295 716.087,433.662 635.288,354.511 	"/>
	<polygon fill="#FFFFFF" points="758.094,464.675 716.717,434.28 716.087,433.662 747.872,284.295 	"/>
	<polygon fill="#FFFFFF" points="450.794,140.792 430.663,266.352 345.653,317.681 345.649,317.681 345.649,317.676 	"/>
	<polygon fill="#FFFFFF" points="747.872,284.295 635.288,354.511 602.593,174.594 	"/>
</g>
</svg>
