<?xml version="1.0" encoding="utf-8"?>
<!-- Generator: Adobe Illustrator 19.1.0, SVG Export Plug-In . SVG Version: 6.00 Build 0)  -->
<svg version="1.1" id="Layer_1" xmlns="http://www.w3.org/2000/svg" xmlns:xlink="http://www.w3.org/1999/xlink" x="0px" y="0px"
	 viewBox="-131 133.5 726 534" style="enable-background:new -131 133.5 726 534;" xml:space="preserve">
<style type="text/css">
	.st0{display:none;}
	.st1{fill:#FFFFFF;}
	.st2{font-family:'Oswald-Bold';}
	.st3{font-size:251px;}
	.st4{fill:#E5E5E5;}
	.st5{fill:#B2B2B2;}
	.st6{opacity:0.9;}
	.st7{fill:#F7F7F7;}
	.st8{fill:#F2F2F2;}
	.st9{fill:url(#SVGID_1_);}
	.st10{fill:url(#SVGID_2_);}
	.st11{fill:#D8D8D8;}
	.st12{fill:#CECECE;}
	.st13{fill:url(#SVGID_3_);}
	.st14{fill:url(#SVGID_4_);}
	.st15{fill:#A5A5A5;}
	.st16{fill:#828282;}
	.st17{fill:url(#SVGID_5_);}
	.st18{fill:url(#SVGID_6_);}
</style>
<rect x="-131" y="133.5" class="st0" width="726" height="534"/>
<text transform="matrix(1 0 0 1 -120.2751 380.0294)" class="st1 st2 st3">LIFE OF </text>
<text transform="matrix(1 0 0 1 -120.2751 635.0294)" class="st1 st2 st3">SAM</text>
<g>
	
		<image style="overflow:visible;opacity:0.2;enable-background:new    ;" width="224" height="254" xlink:href="DD4E2B5C23F2CA5A.png"  transform="matrix(1 0 0 1 337 402.5)">
	</image>
	<g>
		<g>
			<polygon class="st1" points="540.4,468.7 443.7,524.5 347.1,468.7 443.7,412.9 			"/>
			<polygon class="st4" points="443.7,524.5 443.7,636 347.1,580.2 347.1,468.7 			"/>
			<polygon class="st5" points="540.4,468.7 540.4,580.2 443.7,636 443.7,524.5 			"/>
			<g class="st6">
				<path class="st7" d="M443.7,441.4l-62.5,35.8l62.5,35.8l62.5-35.8L443.7,441.4z M466.1,490.2l-22.4,12.9l-22.4-12.9l-8-4.6
					l-13.3-7.7l43.7-25.2l43.7,25.2l-13.3,7.7L466.1,490.2z"/>
				<polygon class="st8" points="474.1,485.6 466.1,490.2 443.7,477.2 421.4,490.2 413.4,485.6 443.7,468 				"/>
				
					<linearGradient id="SVGID_1_" gradientUnits="userSpaceOnUse" x1="405.0347" y1="296.5765" x2="439.2679" y2="237.2833" gradientTransform="matrix(1 0 0 -1 0 743)">
					<stop  offset="0" style="stop-color:#FFFFFF"/>
					<stop  offset="1" style="stop-color:#333333"/>
				</linearGradient>
				<path class="st9" d="M443.7,424.1v17.4l-62.5,35.8l-14.8-8.5L443.7,424.1z M400.1,477.9l13.3,7.7l30.4-17.5v-15.4L400.1,477.9z
					 M421.4,490.2l22.4,12.9v-25.9L421.4,490.2z"/>
				
					<linearGradient id="SVGID_2_" gradientUnits="userSpaceOnUse" x1="482.3654" y1="296.6766" x2="448.1516" y2="237.4165" gradientTransform="matrix(1 0 0 -1 0 743)">
					<stop  offset="0" style="stop-color:#FFFFFF"/>
					<stop  offset="1" style="stop-color:#000000"/>
				</linearGradient>
				<path class="st10" d="M521,468.7l-14.8,8.5l-62.5-35.8V424L521,468.7z M443.7,452.6V468l30.4,17.5l13.3-7.7L443.7,452.6z
					 M443.7,477.2v25.9l22.4-12.9L443.7,477.2z"/>
			</g>
			<g class="st6">
				<path class="st11" d="M371.8,566l62.3,36.2l-0.2-72L371.6,494L371.8,566z M402.8,522.2l22.4,12.9V561v9.2v15.4l-43.7-25.2v-50.5
					l13.3,7.7L402.8,522.2z"/>
				<polygon class="st12" points="394.9,517.6 402.8,522.2 402.8,548.1 425.2,561 425.2,570.2 394.9,552.7 				"/>
				
					<linearGradient id="SVGID_3_" gradientUnits="userSpaceOnUse" x1="-543.2018" y1="201.0511" x2="-508.9894" y2="141.7936" gradientTransform="matrix(-0.5 -0.866 -0.866 0.5 297.9533 26.0721)">
					<stop  offset="0" style="stop-color:#FFFFFF"/>
					<stop  offset="2.313554e-03" style="stop-color:#FEFEFE"/>
					<stop  offset="0.1469" style="stop-color:#C9C9C9"/>
					<stop  offset="0.2932" style="stop-color:#9B9B9B"/>
					<stop  offset="0.4385" style="stop-color:#757575"/>
					<stop  offset="0.5825" style="stop-color:#585858"/>
					<stop  offset="0.7248" style="stop-color:#444444"/>
					<stop  offset="0.8649" style="stop-color:#373737"/>
					<stop  offset="1" style="stop-color:#333333"/>
				</linearGradient>
				<path class="st13" d="M356.8,574.7l15-8.7l62.3,36.2v17.1L356.8,574.7z M425.2,585.6v-15.4l-30.4-17.5l-13.3,7.7L425.2,585.6z
					 M425.2,561v-25.9L402.8,548L425.2,561z"/>
				
					<linearGradient id="SVGID_4_" gradientUnits="userSpaceOnUse" x1="-465.8457" y1="201.0112" x2="-500.0463" y2="141.7743" gradientTransform="matrix(-0.5 -0.866 -0.866 0.5 297.9533 26.0721)">
					<stop  offset="0" style="stop-color:#FFFFFF"/>
					<stop  offset="0.1702" style="stop-color:#C6C6C6"/>
					<stop  offset="0.3969" style="stop-color:#808080"/>
					<stop  offset="0.6015" style="stop-color:#494949"/>
					<stop  offset="0.7765" style="stop-color:#212121"/>
					<stop  offset="0.9151" style="stop-color:#090909"/>
					<stop  offset="1" style="stop-color:#000000"/>
				</linearGradient>
				<path class="st14" d="M356.8,485.4l14.8,8.5l0.3,72l-15,8.7L356.8,485.4z M381.5,560.4l13.3-7.7v-35.1l-13.3-7.7V560.4z
					 M402.8,548.1l22.4-12.9l-22.4-12.9V548.1z"/>
			</g>
			<g class="st6">
				<path class="st15" d="M515.9,494l-62.3,36.2l-0.2,72l62.3-36.2L515.9,494z M492.6,517.6l13.3-7.7v50.5l-43.7,25.2v-15.4V561
					v-25.9l22.4-12.9L492.6,517.6z"/>
				<polygon class="st16" points="492.6,517.6 484.7,522.2 484.7,548.1 462.3,561 462.3,570.2 492.6,552.7 				"/>
				
					<linearGradient id="SVGID_5_" gradientUnits="userSpaceOnUse" x1="-34.1481" y1="1082.7322" x2="5.645481e-02" y2="1023.4882" gradientTransform="matrix(0.5 -0.866 0.866 0.5 -428.516 26.0721)">
					<stop  offset="0" style="stop-color:#FFFFFF"/>
					<stop  offset="6.270617e-02" style="stop-color:#E3E3E3"/>
					<stop  offset="0.1821" style="stop-color:#B5B5B5"/>
					<stop  offset="0.3058" style="stop-color:#8D8D8D"/>
					<stop  offset="0.4321" style="stop-color:#6C6C6C"/>
					<stop  offset="0.5616" style="stop-color:#535353"/>
					<stop  offset="0.6958" style="stop-color:#414141"/>
					<stop  offset="0.8377" style="stop-color:#363636"/>
					<stop  offset="1" style="stop-color:#333333"/>
				</linearGradient>
				<path class="st17" d="M453.4,619.3v-17.1l62.3-36.2l15,8.7L453.4,619.3z M506,560.4l-13.3-7.7l-30.4,17.5v15.4L506,560.4z
					 M484.7,548.1l-22.4-12.9v25.9L484.7,548.1z"/>
				
					<linearGradient id="SVGID_6_" gradientUnits="userSpaceOnUse" x1="43.1227" y1="1082.7444" x2="8.9089" y2="1023.4843" gradientTransform="matrix(0.5 -0.866 0.866 0.5 -428.516 26.0721)">
					<stop  offset="0" style="stop-color:#FFFFFF"/>
					<stop  offset="2.942652e-02" style="stop-color:#EDEDED"/>
					<stop  offset="0.1089" style="stop-color:#C2C2C2"/>
					<stop  offset="0.1946" style="stop-color:#9B9B9B"/>
					<stop  offset="0.2855" style="stop-color:#7B7B7B"/>
					<stop  offset="0.383" style="stop-color:#616161"/>
					<stop  offset="0.4898" style="stop-color:#4C4C4C"/>
					<stop  offset="0.6104" style="stop-color:#3E3E3E"/>
					<stop  offset="0.7567" style="stop-color:#363636"/>
					<stop  offset="1" style="stop-color:#333333"/>
				</linearGradient>
				<path class="st18" d="M530.7,574.7l-15-8.7l0.3-72l14.8-8.5L530.7,574.7z M506,509.9l-13.3,7.7v35.1l13.3,7.7V509.9z
					 M484.7,522.2l-22.4,12.9l22.4,12.9V522.2z"/>
			</g>
		</g>
	</g>
</g>
</svg>
