<?xml version="1.0" encoding="utf-8"?>
<!-- Generator: Adobe Illustrator 19.1.0, SVG Export Plug-In . SVG Version: 6.00 Build 0)  -->
<svg version="1.1" id="Layer_1" xmlns="http://www.w3.org/2000/svg" xmlns:xlink="http://www.w3.org/1999/xlink" x="0px" y="0px"
	 viewBox="-131 133.5 735.5 735.5" style="enable-background:new -131 133.5 735.5 735.5;" xml:space="preserve">
<style type="text/css">
	.st0{fill:none;}
	.st1{fill:#FFFFFF;}
	.st2{font-family:'Oswald-Bold';}
	.st3{font-size:251px;}
	.st4{fill:#E5E5E5;}
	.st5{fill:#B2B2B2;}
	.st6{opacity:0.9;}
	.st7{fill:#F7F7F7;}
	.st8{fill:#F2F2F2;}
	.st9{fill:url(#SVGID_1_);}
	.st10{fill:url(#SVGID_2_);}
	.st11{fill:#D8D8D8;}
	.st12{fill:#CECECE;}
	.st13{fill:url(#SVGID_3_);}
	.st14{fill:url(#SVGID_4_);}
	.st15{fill:#A5A5A5;}
	.st16{fill:#828282;}
	.st17{fill:url(#SVGID_5_);}
	.st18{fill:url(#SVGID_6_);}
</style>
<g>
	<rect x="-113.3" y="262.9" class="st0" width="700" height="476.6"/>
	
		<image style="overflow:visible;opacity:0.2;enable-background:new    ;" width="773" height="608" xlink:href="DD4E2B5C23F2CA56.png"  transform="matrix(1 0 0 1 -124 237)">
	</image>
	<g>
		<text transform="matrix(1 0 0 1 -113.2751 483.5294)" class="st1 st2 st3">LIFE OF </text>
		<text transform="matrix(1 0 0 1 -113.2751 738.5294)" class="st1 st2 st3">SAM</text>
	</g>
	<g>
		
			<image style="overflow:visible;opacity:0.2;enable-background:new    ;" width="224" height="254" xlink:href="DD4E2B5C23F2CA5A.png"  transform="matrix(1 0 0 1 344 506)">
		</image>
		<g>
			<g>
				<polygon class="st1" points="547.4,572.2 450.7,628 354.1,572.2 450.7,516.4 				"/>
				<polygon class="st4" points="450.7,628 450.7,739.5 354.1,683.7 354.1,572.2 				"/>
				<polygon class="st5" points="547.4,572.2 547.4,683.7 450.7,739.5 450.7,628 				"/>
				<g class="st6">
					<path class="st7" d="M450.7,544.9l-62.5,35.8l62.5,35.8l62.5-35.8L450.7,544.9z M473.1,593.7l-22.4,12.9l-22.4-12.9l-8-4.6
						l-13.3-7.7l43.7-25.2l43.7,25.2l-13.3,7.7L473.1,593.7z"/>
					<polygon class="st8" points="481.1,589.1 473.1,593.7 450.7,580.7 428.4,593.7 420.4,589.1 450.7,571.5 					"/>
					
						<linearGradient id="SVGID_1_" gradientUnits="userSpaceOnUse" x1="412.0347" y1="811.9235" x2="446.2678" y2="871.2167" gradientTransform="matrix(1 0 0 1 0 -262)">
						<stop  offset="0" style="stop-color:#FFFFFF"/>
						<stop  offset="1" style="stop-color:#333333"/>
					</linearGradient>
					<path class="st9" d="M450.7,527.6V545l-62.5,35.8l-14.8-8.5L450.7,527.6z M407.1,581.4l13.3,7.7l30.4-17.5v-15.4L407.1,581.4z
						 M428.4,593.7l22.4,12.9v-25.9L428.4,593.7z"/>
					
						<linearGradient id="SVGID_2_" gradientUnits="userSpaceOnUse" x1="489.3654" y1="811.8234" x2="455.1516" y2="871.0835" gradientTransform="matrix(1 0 0 1 0 -262)">
						<stop  offset="0" style="stop-color:#FFFFFF"/>
						<stop  offset="1" style="stop-color:#000000"/>
					</linearGradient>
					<path class="st10" d="M528,572.2l-14.8,8.5l-62.5-35.8v-17.4L528,572.2z M450.7,556.1v15.4l30.4,17.5l13.3-7.7L450.7,556.1z
						 M450.7,580.7v25.9l22.4-12.9L450.7,580.7z"/>
				</g>
				<g class="st6">
					<path class="st11" d="M378.8,669.5l62.3,36.2l-0.2-72l-62.3-36.2L378.8,669.5z M409.8,625.7l22.4,12.9v25.9v9.2v15.4
						l-43.7-25.2v-50.5l13.3,7.7L409.8,625.7z"/>
					<polygon class="st12" points="401.9,621.1 409.8,625.7 409.8,651.6 432.2,664.5 432.2,673.7 401.9,656.2 					"/>
					
						<linearGradient id="SVGID_3_" gradientUnits="userSpaceOnUse" x1="-245.4963" y1="527.6069" x2="-211.2839" y2="586.8644" gradientTransform="matrix(-0.5 -0.866 0.866 -0.5 -177.2117 751.7141)">
						<stop  offset="0" style="stop-color:#FFFFFF"/>
						<stop  offset="2.313554e-03" style="stop-color:#FEFEFE"/>
						<stop  offset="0.1469" style="stop-color:#C9C9C9"/>
						<stop  offset="0.2932" style="stop-color:#9B9B9B"/>
						<stop  offset="0.4385" style="stop-color:#757575"/>
						<stop  offset="0.5825" style="stop-color:#585858"/>
						<stop  offset="0.7248" style="stop-color:#444444"/>
						<stop  offset="0.8649" style="stop-color:#373737"/>
						<stop  offset="1" style="stop-color:#333333"/>
					</linearGradient>
					<path class="st13" d="M363.8,678.2l15-8.7l62.3,36.2v17.1L363.8,678.2z M432.2,689.1v-15.4l-30.4-17.5l-13.3,7.7L432.2,689.1z
						 M432.2,664.5v-25.9l-22.4,12.9L432.2,664.5z"/>
					
						<linearGradient id="SVGID_4_" gradientUnits="userSpaceOnUse" x1="-168.1401" y1="527.6469" x2="-202.3407" y2="586.8838" gradientTransform="matrix(-0.5 -0.866 0.866 -0.5 -177.2117 751.7141)">
						<stop  offset="0" style="stop-color:#FFFFFF"/>
						<stop  offset="0.1702" style="stop-color:#C6C6C6"/>
						<stop  offset="0.3969" style="stop-color:#808080"/>
						<stop  offset="0.6015" style="stop-color:#494949"/>
						<stop  offset="0.7765" style="stop-color:#212121"/>
						<stop  offset="0.9151" style="stop-color:#090909"/>
						<stop  offset="1" style="stop-color:#000000"/>
					</linearGradient>
					<path class="st14" d="M363.8,588.9l14.8,8.5l0.3,72l-15,8.7L363.8,588.9z M388.5,663.9l13.3-7.7v-35.1l-13.3-7.7V663.9z
						 M409.8,651.6l22.4-12.9l-22.4-12.9V651.6z"/>
				</g>
				<g class="st6">
					<path class="st15" d="M522.9,597.5l-62.3,36.2l-0.2,72l62.3-36.2L522.9,597.5z M499.6,621.1l13.3-7.7v50.5l-43.7,25.2v-15.4
						v-9.2v-25.9l22.4-12.9L499.6,621.1z"/>
					<polygon class="st16" points="499.6,621.1 491.7,625.7 491.7,651.6 469.3,664.5 469.3,673.7 499.6,656.2 					"/>
					
						<linearGradient id="SVGID_5_" gradientUnits="userSpaceOnUse" x1="8.5463" y1="87.6052" x2="42.7508" y2="146.8491" gradientTransform="matrix(0.5 -0.866 -0.866 -0.5 570.649 751.7141)">
						<stop  offset="0" style="stop-color:#FFFFFF"/>
						<stop  offset="6.270617e-02" style="stop-color:#E3E3E3"/>
						<stop  offset="0.1821" style="stop-color:#B5B5B5"/>
						<stop  offset="0.3058" style="stop-color:#8D8D8D"/>
						<stop  offset="0.4321" style="stop-color:#6C6C6C"/>
						<stop  offset="0.5616" style="stop-color:#535353"/>
						<stop  offset="0.6958" style="stop-color:#414141"/>
						<stop  offset="0.8377" style="stop-color:#363636"/>
						<stop  offset="1" style="stop-color:#333333"/>
					</linearGradient>
					<path class="st17" d="M460.4,722.8v-17.1l62.3-36.2l15,8.7L460.4,722.8z M513,663.9l-13.3-7.7l-30.4,17.5v15.4L513,663.9z
						 M491.7,651.6l-22.4-12.9v25.9L491.7,651.6z"/>
					
						<linearGradient id="SVGID_6_" gradientUnits="userSpaceOnUse" x1="85.8171" y1="87.593" x2="51.6033" y2="146.8531" gradientTransform="matrix(0.5 -0.866 -0.866 -0.5 570.649 751.7141)">
						<stop  offset="0" style="stop-color:#FFFFFF"/>
						<stop  offset="2.942652e-02" style="stop-color:#EDEDED"/>
						<stop  offset="0.1089" style="stop-color:#C2C2C2"/>
						<stop  offset="0.1946" style="stop-color:#9B9B9B"/>
						<stop  offset="0.2855" style="stop-color:#7B7B7B"/>
						<stop  offset="0.383" style="stop-color:#616161"/>
						<stop  offset="0.4898" style="stop-color:#4C4C4C"/>
						<stop  offset="0.6104" style="stop-color:#3E3E3E"/>
						<stop  offset="0.7567" style="stop-color:#363636"/>
						<stop  offset="1" style="stop-color:#333333"/>
					</linearGradient>
					<path class="st18" d="M537.7,678.2l-15-8.7l0.3-72l14.8-8.5L537.7,678.2z M513,613.4l-13.3,7.7v35.1l13.3,7.7V613.4z
						 M491.7,625.7l-22.4,12.9l22.4,12.9V625.7z"/>
				</g>
			</g>
		</g>
	</g>
</g>
</svg>
