<?xml version="1.0" encoding="utf-8"?>
<!-- Generator: Adobe Illustrator 19.2.1, SVG Export Plug-In . SVG Version: 6.00 Build 0)  -->
<svg version="1.1" id="Layer_1" xmlns="http://www.w3.org/2000/svg" xmlns:xlink="http://www.w3.org/1999/xlink" x="0px" y="0px"
	 viewBox="0 0 735.5 735.5" style="enable-background:new 0 0 735.5 735.5;" xml:space="preserve">
<style type="text/css">
	.st0{fill:none;}
	.st1{enable-background:new    ;}
	.st2{fill:#A5A5A5;}
	.st3{fill:#DBDBDB;}
	.st4{fill:#808080;}
	.st5{clip-path:url(#SVGID_2_);enable-background:new    ;}
	.st6{fill:#858585;}
	.st7{fill:#8A8A8A;}
	.st8{fill:#8F8F8F;}
	.st9{fill:#949494;}
	.st10{fill:#999999;}
	.st11{fill:#9E9E9E;}
	.st12{fill:#A3A3A3;}
	.st13{clip-path:url(#SVGID_4_);enable-background:new    ;}
	.st14{fill:#A8A8A8;}
	.st15{clip-path:url(#SVGID_6_);enable-background:new    ;}
	.st16{clip-path:url(#SVGID_8_);enable-background:new    ;}
	.st17{clip-path:url(#SVGID_10_);enable-background:new    ;}
	.st18{clip-path:url(#SVGID_12_);enable-background:new    ;}
	.st19{clip-path:url(#SVGID_14_);enable-background:new    ;}
	.st20{fill:#A2A2A2;}
	.st21{clip-path:url(#SVGID_16_);enable-background:new    ;}
	.st22{clip-path:url(#SVGID_18_);enable-background:new    ;}
	.st23{clip-path:url(#SVGID_20_);enable-background:new    ;}
	.st24{clip-path:url(#SVGID_22_);enable-background:new    ;}
	.st25{fill:#A0A0A0;}
	.st26{fill:#9F9F9F;}
	.st27{fill:#A9A9A9;}
	.st28{fill:#A4A4A4;}
	.st29{clip-path:url(#SVGID_24_);enable-background:new    ;}
	.st30{fill:#FFFFFF;}
	.st31{fill:#E5E5E5;}
	.st32{fill:#B2B2B2;}
	.st33{opacity:0.9;}
	.st34{fill:#EFEFEF;}
	.st35{fill:url(#SVGID_25_);}
	.st36{fill:url(#SVGID_26_);}
	.st37{fill:url(#SVGID_27_);}
	.st38{fill:url(#SVGID_28_);}
	.st39{fill:url(#SVGID_29_);}
	.st40{fill:url(#SVGID_30_);}
</style>
<g>
	<rect x="17.7" y="129.4" class="st0" width="700" height="476.6"/>
	<g>
		<g class="st1">
			<g>
				<polygon class="st2" points="78.1,128.1 84.2,134.2 81.4,322.8 75.3,316.7 				"/>
			</g>
			<g>
				<polygon class="st3" points="78.1,128.1 75.3,316.7 118.9,316.7 118.4,347.1 30.6,347.1 33.9,128.1 				"/>
			</g>
			<g>
				<polygon class="st2" points="118.9,316.7 124.9,322.8 124.4,353.2 118.4,347.1 				"/>
			</g>
			<g>
				<polygon class="st4" points="118.4,347.1 124.4,353.2 36.6,353.2 30.6,347.1 				"/>
			</g>
		</g>
		<g class="st1">
			<g>
				<polygon class="st3" points="180.1,128.1 176.8,347.1 132.5,347.1 135.8,128.1 				"/>
			</g>
			<g>
				<polygon class="st2" points="180.1,128.1 186.1,134.2 182.8,353.2 176.8,347.1 				"/>
			</g>
			<g>
				<polygon class="st4" points="176.8,347.1 182.8,353.2 138.6,353.2 132.5,347.1 				"/>
			</g>
		</g>
		<g class="st1">
			<g>
				<polygon class="st2" points="297.5,128.1 303.5,134.2 303,164.7 297,158.6 				"/>
			</g>
			<g>
				<polygon class="st4" points="297,158.6 303,164.7 256,164.7 249.9,158.6 				"/>
			</g>
			<g>
				<polygon class="st2" points="249.9,158.6 256,164.7 255.1,224.3 249,218.2 				"/>
			</g>
			<g>
				<polygon class="st4" points="281.9,249.3 287.9,255.4 254.6,255.4 248.6,249.3 				"/>
			</g>
			<g>
				<polygon class="st2" points="282.4,218.2 288.4,224.3 287.9,255.4 281.9,249.3 				"/>
			</g>
			<g>
				<polygon class="st4" points="247.1,347.1 253.1,353.2 208.9,353.2 202.8,347.1 				"/>
			</g>
			<g>
				<polygon class="st2" points="248.6,249.3 254.6,255.4 253.1,353.2 247.1,347.1 				"/>
			</g>
			<g>
				<polygon class="st3" points="297.5,128.1 297,158.6 249.9,158.6 249,218.2 282.4,218.2 281.9,249.3 248.6,249.3 247.1,347.1 
					202.8,347.1 206.1,128.1 				"/>
			</g>
		</g>
		<g class="st1">
			<g>
				<polygon class="st2" points="401.6,128.1 407.6,134.2 407.2,164.7 401.1,158.6 				"/>
			</g>
			<g>
				<polygon class="st4" points="401.1,158.6 407.2,164.7 360.1,164.7 354.1,158.6 				"/>
			</g>
			<g>
				<polygon class="st2" points="354.1,158.6 360.1,164.7 359.2,224.3 353.2,218.2 				"/>
			</g>
			<g>
				<polygon class="st2" points="386.5,218.2 392.5,224.3 392.1,255.4 386,249.3 				"/>
			</g>
			<g>
				<polygon class="st4" points="386,249.3 392.1,255.4 358.7,255.4 352.7,249.3 				"/>
			</g>
			<g>
				<polygon class="st2" points="352.7,249.3 358.7,255.4 357.7,322.8 351.7,316.7 				"/>
			</g>
			<g>
				<polygon class="st4" points="398.3,347.1 404.4,353.2 313,353.2 307,347.1 				"/>
			</g>
			<g>
				<polygon class="st2" points="398.8,316.7 404.8,322.8 404.4,353.2 398.3,347.1 				"/>
			</g>
			<g>
				<polygon class="st3" points="401.6,128.1 401.1,158.6 354.1,158.6 353.2,218.2 386.5,218.2 386,249.3 352.7,249.3 351.7,316.7 
					398.8,316.7 398.3,347.1 307,347.1 310.2,128.1 				"/>
			</g>
		</g>
		<g class="st1">
			<g class="st1">
				<defs>
					<path id="SVGID_1_" class="st1" d="M540.1,162.7l6,6.1c-3.1-3.1-7.1-4.6-12.1-4.6c-4,0-7.4,1-10.1,3c-2.8,2-4.8,4.7-6.2,8.1
						c-1.4,3.4-2.3,6.9-2.9,10.2c-0.6,3.4-0.9,7-1,11l-6-6.1c0.1-4,0.4-7.6,1-11c0.6-3.4,1.5-6.8,2.9-10.2c1.3-3.4,3.4-6.2,6.2-8.1
						c2.8-2,6.2-3,10.1-3C533,158.1,537,159.6,540.1,162.7z"/>
				</defs>
				<clipPath id="SVGID_2_">
					<use xlink:href="#SVGID_1_"  style="overflow:visible;"/>
				</clipPath>
				<g class="st5">
					<path class="st6" d="M540.1,162.7l6,6.1c-3.1-3.1-7.1-4.6-12.1-4.6c-4,0-7.4,1-10.1,3c-0.9,0.6-1.7,1.3-2.4,2.1l-6-6.1
						c0.7-0.8,1.5-1.4,2.4-2.1c2.8-2,6.2-3,10.1-3C533,158.1,537,159.6,540.1,162.7"/>
					<path class="st7" d="M515.5,163.1l6,6.1c-0.7,0.7-1.3,1.4-1.8,2.2l-6-6.1C514.2,164.5,514.8,163.8,515.5,163.1"/>
					<path class="st8" d="M513.7,165.3l6,6.1c-0.5,0.7-0.9,1.5-1.3,2.3l-6-6.1C512.8,166.8,513.2,166,513.7,165.3"/>
					<path class="st9" d="M512.4,167.6l6,6.1c-0.3,0.5-0.5,1.1-0.7,1.6c-0.4,0.9-0.7,1.8-1,2.7l-6-6.1c0.3-0.9,0.6-1.8,1-2.7
						C511.9,168.6,512.1,168.1,512.4,167.6"/>
					<path class="st10" d="M510.7,171.9l6,6.1c-0.8,2.2-1.3,4.5-1.8,6.7l-6-6.1C509.3,176.4,509.9,174.1,510.7,171.9"/>
					<path class="st11" d="M508.9,178.6l6,6.1c-0.1,0.3-0.1,0.6-0.2,0.8c-0.5,2.9-0.8,5.9-0.9,9.2l-6-6.1c0.1-3.3,0.4-6.4,0.9-9.2
						C508.8,179.1,508.9,178.9,508.9,178.6"/>
					<path class="st12" d="M507.9,188.6l6,6.1c0,0.6,0,1.2,0,1.8l-6-6.1C507.8,189.8,507.8,189.2,507.9,188.6"/>
				</g>
			</g>
			<g>
				<polygon class="st2" points="507.8,190.4 513.9,196.5 512.5,291.2 506.4,285.1 				"/>
			</g>
			<g class="st1">
				<defs>
					<path id="SVGID_3_" class="st1" d="M573,139.6l6,6.1c12.7,12.8,18.9,33.4,18.4,61.9l-6-6.1C591.9,173.1,585.7,152.5,573,139.6z
						"/>
				</defs>
				<clipPath id="SVGID_4_">
					<use xlink:href="#SVGID_3_"  style="overflow:visible;"/>
				</clipPath>
				<g class="st13">
					<path class="st12" d="M573,139.6l6,6.1c1.1,1.1,2.2,2.3,3.2,3.6l-6-6.1C575.2,142,574.2,140.8,573,139.6"/>
					<path class="st14" d="M576.2,143.2l6,6.1c6.6,8.1,11.1,18.9,13.4,32.2l-6-6.1C587.3,162.1,582.9,151.4,576.2,143.2"/>
					<path class="st12" d="M589.6,175.4l6,6.1c1.4,7.8,2,16.5,1.8,26.1l-6-6.1C591.6,191.9,591,183.2,589.6,175.4"/>
				</g>
			</g>
			<g class="st1">
				<defs>
					<path id="SVGID_5_" class="st1" d="M519.7,318.8l-6-6.1c-5-5.1-7.4-14.3-7.2-27.6l6,6.1C512.3,304.5,514.7,313.8,519.7,318.8z"
						/>
				</defs>
				<clipPath id="SVGID_6_">
					<use xlink:href="#SVGID_5_"  style="overflow:visible;"/>
				</clipPath>
				<g class="st15">
					<path class="st12" d="M506.4,285.1l6,6.1c-0.1,5.1,0.2,9.5,0.9,13.4l-6-6.1C506.6,294.6,506.3,290.1,506.4,285.1"/>
					<path class="st14" d="M507.3,298.5l6,6.1c1,5.6,2.7,9.9,5.2,13l-6-6.1C510,308.3,508.3,304,507.3,298.5"/>
					<path class="st12" d="M512.5,311.4l6,6.1c0.4,0.5,0.7,0.9,1.1,1.3l-6-6.1C513.2,312.3,512.8,311.9,512.5,311.4"/>
				</g>
			</g>
			<g>
				<polygon class="st2" points="591.5,201.5 597.5,207.6 596.4,280.1 590.4,274 				"/>
			</g>
			<g class="st1">
				<defs>
					<path id="SVGID_7_" class="st1" d="M487,341.9l-6-6.1c0.3,0.3,0.6,0.6,0.9,0.9c4.7,4.5,10.8,8.1,18.1,10.7
						c7.3,2.6,15.7,3.9,25.1,3.9c9.5,0,17.9-1.3,25.4-4c7.4-2.7,13.6-6.3,18.5-11c4.9-4.7,9-10.3,12.2-17c3.2-6.6,5.5-13.7,6.9-21.1
						c1.4-7.4,2.2-15.5,2.3-24.3l6,6.1c-0.1,8.8-0.9,16.8-2.3,24.3c-1.4,7.4-3.7,14.5-6.9,21.1c-3.2,6.7-7.3,12.3-12.2,17
						c-4.9,4.7-11.1,8.3-18.5,11c-7.4,2.7-15.9,4-25.4,4c-9.4,0-17.8-1.3-25.1-3.9c-7.3-2.6-13.4-6.2-18.1-10.7
						C487.6,342.5,487.3,342.2,487,341.9z"/>
				</defs>
				<clipPath id="SVGID_8_">
					<use xlink:href="#SVGID_7_"  style="overflow:visible;"/>
				</clipPath>
				<g class="st16">
					<path class="st12" d="M590.4,274l6,6.1c0,1.2,0,2.4-0.1,3.6l-6-6.1C590.3,276.4,590.4,275.2,590.4,274"/>
					<path class="st11" d="M590.3,277.6l6,6.1c-0.3,7.4-1,14.3-2.2,20.7c0,0,0,0,0,0.1l-6-6.1c0,0,0,0,0-0.1
						C589.3,291.9,590,285,590.3,277.6"/>
					<path class="st10" d="M588.1,298.3l6,6.1c-0.7,3.9-1.7,7.6-2.9,11.3l-6-6.1C586.3,306,587.3,302.2,588.1,298.3"/>
					<path class="st9" d="M585.1,309.6l6,6.1c-1.1,3.3-2.4,6.6-4,9.7c-0.1,0.1-0.1,0.3-0.2,0.4l-6-6.1c0.1-0.1,0.1-0.3,0.2-0.4
						C582.7,316.2,584,313,585.1,309.6"/>
					<path class="st8" d="M580.9,319.8l6,6.1c-1.3,2.7-2.8,5.3-4.4,7.6l-6-6.1C578.1,325.1,579.6,322.5,580.9,319.8"/>
					<path class="st7" d="M576.5,327.5l6,6.1c-1.8,2.6-3.7,5-5.8,7.2l-6-6.1C572.7,332.5,574.7,330.1,576.5,327.5"/>
					<path class="st6" d="M570.6,334.7l6,6.1c-0.5,0.6-1.1,1.1-1.7,1.7c-4.9,4.7-11.1,8.3-18.5,11c-7.4,2.7-15.9,4-25.4,4
						c-9.4,0-17.8-1.3-25.1-3.9c-7.3-2.6-13.4-6.2-18.1-10.7c-0.3-0.3-0.6-0.6-0.9-0.9l-6-6.1c0.3,0.3,0.6,0.6,0.9,0.9
						c4.7,4.5,10.8,8.1,18.1,10.7c7.3,2.6,15.7,3.9,25.1,3.9c9.5,0,17.9-1.3,25.4-4c7.4-2.7,13.6-6.3,18.5-11
						C569.5,335.8,570.1,335.2,570.6,334.7"/>
				</g>
			</g>
			<g>
				<path class="st3" d="M528.5,123.9c42.7,0,63.7,25.9,62.9,77.6l-1.1,72.5c-0.1,8.8-0.9,16.8-2.3,24.3c-1.4,7.4-3.7,14.5-6.9,21.1
					c-3.2,6.7-7.3,12.3-12.2,17c-4.9,4.7-11.1,8.3-18.5,11c-7.4,2.7-15.9,4-25.4,4c-9.4,0-17.8-1.3-25.1-3.9
					c-7.3-2.6-13.4-6.2-18.1-10.7c-4.7-4.5-8.6-10-11.6-16.5c-3-6.5-5.2-13.5-6.4-20.9c-1.2-7.4-1.8-15.4-1.6-24.2l1.1-73.6
					C464.1,149.8,485.9,123.9,528.5,123.9z M545.9,285.1l1.4-94.6c0.3-21.6-6.1-32.4-19.3-32.4c-4,0-7.4,1-10.1,3
					c-2.8,2-4.8,4.7-6.2,8.1c-1.4,3.4-2.3,6.9-2.9,10.2c-0.6,3.4-0.9,7-1,11l-1.4,94.6c-0.3,21.5,6.1,32.2,19.2,32.2
					C538.8,317.3,545.6,306.6,545.9,285.1"/>
			</g>
		</g>
		<g class="st1">
			<g>
				<polygon class="st2" points="707.2,128.1 713.2,134.2 712.7,164.7 706.7,158.6 				"/>
			</g>
			<g>
				<polygon class="st4" points="706.7,158.6 712.7,164.7 665.7,164.7 659.6,158.6 				"/>
			</g>
			<g>
				<polygon class="st2" points="659.6,158.6 665.7,164.7 664.8,224.3 658.7,218.2 				"/>
			</g>
			<g>
				<polygon class="st4" points="691.6,249.3 697.6,255.4 664.3,255.4 658.3,249.3 				"/>
			</g>
			<g>
				<polygon class="st2" points="692.1,218.2 698.1,224.3 697.6,255.4 691.6,249.3 				"/>
			</g>
			<g>
				<polygon class="st4" points="656.8,347.1 662.8,353.2 618.6,353.2 612.5,347.1 				"/>
			</g>
			<g>
				<polygon class="st2" points="658.3,249.3 664.3,255.4 662.8,353.2 656.8,347.1 				"/>
			</g>
			<g>
				<polygon class="st3" points="707.2,128.1 706.7,158.6 659.6,158.6 658.7,218.2 692.1,218.2 691.6,249.3 658.3,249.3 
					656.8,347.1 612.5,347.1 615.8,128.1 				"/>
			</g>
		</g>
		<g class="st1">
			<g class="st1">
				<defs>
					<path id="SVGID_9_" class="st1" d="M88.3,413.9l6,6.1c-0.3-0.3-0.6-0.6-0.9-0.8c-1.9-1.6-4.3-2.4-7-2.4c-4.9,0-8.5,1.9-11,5.7
						c-2.5,3.8-3.8,8.3-3.9,13.5c-0.1,4.5,0.6,8.8,1.9,12.8c1.4,4,3.5,7.7,6.3,11.1c2.3,2.8,4.4,5.2,6.4,7.2l-6-6.1
						c-2-2-4.1-4.4-6.4-7.2c-2.8-3.4-4.9-7.2-6.3-11.1c-1.4-4-2-8.2-1.9-12.8c0.1-5.2,1.4-9.7,3.9-13.5c2.5-3.8,6.2-5.7,11-5.7
						c2.8,0,5.1,0.8,7,2.4C87.7,413.3,88,413.6,88.3,413.9z"/>
				</defs>
				<clipPath id="SVGID_10_">
					<use xlink:href="#SVGID_9_"  style="overflow:visible;"/>
				</clipPath>
				<g class="st17">
					<path class="st6" d="M88.3,413.9l6,6.1c-0.3-0.3-0.6-0.6-0.9-0.8c-1.9-1.6-4.3-2.4-7-2.4c-3.9,0-7.1,1.2-9.4,3.7l-6-6.1
						c2.4-2.5,5.5-3.7,9.4-3.7c2.8,0,5.1,0.8,7,2.4C87.7,413.3,88,413.6,88.3,413.9"/>
					<path class="st7" d="M70.9,414.4l6,6.1c-0.5,0.5-1,1.1-1.4,1.8l-6-6.1C69.9,415.5,70.4,414.9,70.9,414.4"/>
					<path class="st8" d="M69.5,416.1l6,6.1c-0.1,0.1-0.1,0.2-0.2,0.3c-0.5,0.8-0.9,1.5-1.3,2.4l-6-6.1c0.4-0.8,0.9-1.6,1.3-2.4
						C69.4,416.3,69.4,416.2,69.5,416.1"/>
					<path class="st9" d="M68,418.8l6,6.1c-0.4,0.9-0.8,1.8-1.2,2.8l-6-6.1C67.1,420.6,67.5,419.7,68,418.8"/>
					<path class="st10" d="M66.8,421.6l6,6.1c-0.4,1.1-0.6,2.1-0.9,3.3l-6-6.1C66.2,423.7,66.5,422.6,66.8,421.6"/>
					<path class="st11" d="M66,424.9l6,6.1c-0.3,1.4-0.4,2.9-0.5,4.4l-6-6.1C65.5,427.7,65.7,426.3,66,424.9"/>
					<path class="st12" d="M65.5,429.2l6,6.1c0,0.2,0,0.4,0,0.7c0,2.5,0.1,5,0.6,7.4l-6-6.1c-0.4-2.4-0.6-4.8-0.6-7.4
						C65.5,429.7,65.5,429.5,65.5,429.2"/>
					<path class="st14" d="M66,437.3l6,6.1c0.3,1.9,0.8,3.7,1.4,5.4c1.4,3.9,3.4,7.6,6.2,11.1l-6-6.1c-2.8-3.4-4.9-7.1-6.2-11.1
						C66.8,440.9,66.3,439.1,66,437.3"/>
					<path class="st12" d="M73.6,453.7l6,6.1c0,0,0,0.1,0.1,0.1c2.3,2.8,4.4,5.2,6.4,7.2l-6-6.1C78.1,459,75.9,456.6,73.6,453.7
						C73.7,453.8,73.6,453.8,73.6,453.7"/>
				</g>
			</g>
			<g class="st1">
				<defs>
					<path id="SVGID_11_" class="st1" d="M50.4,492.2l-6-6.1c0.5,0.5,1,0.9,1.4,1.4c2.6,2.4,6,5.5,10.3,9.1l6,6.1
						c-4.3-3.6-7.8-6.7-10.3-9.1C51.3,493.1,50.9,492.6,50.4,492.2z"/>
				</defs>
				<clipPath id="SVGID_12_">
					<use xlink:href="#SVGID_11_"  style="overflow:visible;"/>
				</clipPath>
				<g class="st18">
					<path class="st6" d="M56.1,496.6l6,6.1c-4.3-3.6-7.8-6.7-10.3-9.1c-0.5-0.4-0.9-0.9-1.4-1.4l-6-6.1c0.5,0.5,1,0.9,1.4,1.4
						C48.3,489.9,51.7,492.9,56.1,496.6"/>
				</g>
			</g>
			<g class="st1">
				<defs>
					<path id="SVGID_13_" class="st1" d="M123.3,392.8l6,6.1c0.2,0.2,0.3,0.3,0.5,0.5c10.7,11,15.9,24.3,15.7,39.9l-6-6.1
						c0.2-15.6-5-28.9-15.7-39.9C123.6,393.1,123.4,392.9,123.3,392.8z"/>
				</defs>
				<clipPath id="SVGID_14_">
					<use xlink:href="#SVGID_13_"  style="overflow:visible;"/>
				</clipPath>
				<g class="st19">
					<path class="st12" d="M123.3,392.8l6,6.1c0.2,0.2,0.3,0.3,0.5,0.5c1.3,1.3,2.4,2.6,3.6,4l-6-6.1c-1.1-1.4-2.3-2.7-3.6-4
						C123.6,393.1,123.4,392.9,123.3,392.8"/>
					<path class="st14" d="M127.3,397.3l6,6.1c6,7.3,9.7,15.5,11.3,24.7l-6-6.1C137.1,412.8,133.3,404.6,127.3,397.3"/>
					<path class="st12" d="M138.6,422l6,6.1c0.6,3.6,0.9,7.3,0.8,11.2l-6-6.1C139.6,429.3,139.3,425.6,138.6,422"/>
				</g>
			</g>
			<g>
				<polygon class="st20" points="139.5,433.2 145.5,439.3 145.4,440.9 139.3,434.8 				"/>
			</g>
			<g>
				<polygon class="st4" points="139.3,438.4 145.3,444.5 99.5,450.8 93.5,444.7 				"/>
			</g>
			<g class="st1">
				<defs>
					<path id="SVGID_15_" class="st1" d="M139.3,434.8l6,6.1c0,1.1,0,2.3-0.1,3.7l-6-6.1C139.3,437,139.3,435.8,139.3,434.8z"/>
				</defs>
				<clipPath id="SVGID_16_">
					<use xlink:href="#SVGID_15_"  style="overflow:visible;"/>
				</clipPath>
				<g class="st21">
					<path class="st12" d="M139.3,434.8l6,6.1c0,1.1,0,2.3-0.1,3.7l-6-6.1C139.3,437,139.3,435.8,139.3,434.8"/>
				</g>
			</g>
			<g>
				<polygon class="st4" points="69.6,508.2 75.7,514.3 62.1,502.7 56.1,496.6 				"/>
			</g>
			<g class="st1">
				<defs>
					<path id="SVGID_17_" class="st1" d="M75.2,513.5l6,6.1c-1.7-1.7-3.6-3.5-5.5-5.2l-6-6.1C71.6,510,73.4,511.7,75.2,513.5z"/>
				</defs>
				<clipPath id="SVGID_18_">
					<use xlink:href="#SVGID_17_"  style="overflow:visible;"/>
				</clipPath>
				<g class="st22">
					<path class="st6" d="M75.2,513.5l6,6.1c-1.7-1.7-3.6-3.5-5.5-5.2l-6-6.1C71.6,510,73.4,511.7,75.2,513.5"/>
				</g>
			</g>
			<g class="st1">
				<defs>
					<path id="SVGID_19_" class="st1" d="M78.6,573l-6-6.1c-1.5-1.5-2.7-3.2-3.6-5.2c-1.1-2.6-2-5.8-2.7-9.9c-0.6-4-1-7.7-1.1-11.1
						c-0.1-3.4-0.1-7.3-0.1-11.8l6,6.1c-0.1,4.5,0,8.4,0.1,11.8s0.5,7.1,1.1,11.1c0.6,4,1.5,7.3,2.7,9.9
						C76,569.8,77.1,571.5,78.6,573z"/>
				</defs>
				<clipPath id="SVGID_20_">
					<use xlink:href="#SVGID_19_"  style="overflow:visible;"/>
				</clipPath>
				<g class="st23">
					<path class="st12" d="M65.2,528.9l6,6.1c-0.1,4.5,0,8.4,0.1,11.8s0.5,7.1,1.1,11.1c0.1,0.3,0.1,0.7,0.2,1l-6-6.1
						c-0.1-0.3-0.1-0.7-0.2-1c-0.6-4-1-7.7-1.1-11.1C65.1,537.3,65.1,533.4,65.2,528.9"/>
					<path class="st14" d="M66.5,552.9l6,6.1c0.6,3.6,1.4,6.5,2.5,8.8c0.7,1.5,1.5,2.8,2.4,4l-6-6.1c-1-1.2-1.8-2.5-2.4-4
						C68,559.4,67.2,556.4,66.5,552.9"/>
					<path class="st12" d="M71.5,565.7l6,6.1c0.4,0.4,0.7,0.8,1.1,1.2l-6-6.1C72.2,566.6,71.8,566.1,71.5,565.7"/>
				</g>
			</g>
			<g class="st1">
				<defs>
					<path id="SVGID_21_" class="st1" d="M108.9,486.7l6,6.1c2.3,2.3,4.4,4.6,6.3,6.7c4.2,4.8,8.2,10.3,11.9,16.4
						c3.7,6.1,6.5,12.7,8.3,19.7c1.8,7.1,2.6,14.7,2.5,22.9c-0.2,15.3-5.9,27.9-17,37.7c-11.1,9.8-24.5,14.7-40.1,14.7
						c-10.1,0-19.1-1.9-26.9-5.6c-5.6-2.7-10.4-6-14.4-10.1l-6-6.1c4,4,8.8,7.4,14.4,10.1c7.8,3.7,16.8,5.6,26.9,5.6
						c15.7,0,29-4.9,40.1-14.7c11.1-9.8,16.8-22.3,17-37.7c0.1-8.2-0.7-15.8-2.5-22.9c-1.8-7-4.6-13.6-8.3-19.7
						c-3.7-6.1-7.7-11.5-11.9-16.4C113.3,491.3,111.2,489.1,108.9,486.7z"/>
				</defs>
				<clipPath id="SVGID_22_">
					<use xlink:href="#SVGID_21_"  style="overflow:visible;"/>
				</clipPath>
				<g class="st24">
					<path class="st12" d="M108.9,486.7l6,6.1c2.3,2.3,4.4,4.6,6.3,6.7c0.8,0.9,1.6,1.9,2.4,2.8l-6-6.1c-0.8-1-1.6-1.9-2.4-2.8
						C113.3,491.3,111.2,489.1,108.9,486.7"/>
					<path class="st14" d="M117.6,496.3l6,6.1c3.3,4.1,6.5,8.6,9.5,13.5c3.7,6.1,6.5,12.7,8.3,19.7c0.5,1.9,0.9,3.9,1.3,5.9l-6-6.1
						c-0.3-2-0.8-4-1.3-5.9c-1.8-7-4.6-13.6-8.3-19.7C124.1,504.9,121,500.4,117.6,496.3"/>
					<path class="st12" d="M136.7,535.5l6,6.1c0.9,5.3,1.3,11,1.2,16.9c0,0.4,0,0.9,0,1.3l-6-6.1c0-0.4,0-0.9,0-1.3
						C138,546.5,137.6,540.8,136.7,535.5"/>
					<path class="st11" d="M137.9,553.7l6,6.1c-0.1,3-0.4,5.9-0.9,8.7l-6-6.1C137.5,559.6,137.8,556.7,137.9,553.7"/>
					<path class="st10" d="M137,562.3l6,6.1c-0.4,2.3-1,4.5-1.7,6.6l-6-6.1C136,566.8,136.5,564.6,137,562.3"/>
					<path class="st9" d="M135.2,568.9l6,6.1c-0.7,2-1.5,3.9-2.4,5.8l-6-6.1C133.8,572.9,134.6,570.9,135.2,568.9"/>
					<path class="st8" d="M132.9,574.7l6,6.1c-1,2-2.1,3.9-3.3,5.7l-6-6.1C130.8,578.6,131.9,576.7,132.9,574.7"/>
					<path class="st7" d="M129.5,580.4l6,6.1c-1.5,2.3-3.3,4.4-5.2,6.4l-6-6.1C126.3,584.8,128,582.7,129.5,580.4"/>
					<path class="st6" d="M124.3,586.9l6,6.1c-1.1,1.1-2.2,2.2-3.3,3.2c-11.1,9.8-24.5,14.7-40.1,14.7c-10.1,0-19.1-1.9-26.9-5.6
						c-5.6-2.7-10.4-6-14.4-10.1l-6-6.1c4,4,8.8,7.4,14.4,10.1c7.8,3.7,16.8,5.6,26.9,5.6c15.7,0,29-4.9,40.1-14.7
						C122.1,589,123.3,588,124.3,586.9"/>
				</g>
			</g>
			<g>
				<path class="st3" d="M84.5,376.8c15.5,0,28.6,5.5,39.3,16.5c10.7,11,15.9,24.3,15.7,39.9l-0.1,1.6c0,1.1,0,2.3-0.1,3.7
					l-45.8,6.3c0-0.9,0.1-2.3,0.3-4.2c0.1-1.9,0.2-3.5,0.2-4.7c0-2.9-0.1-5.7-0.5-8.4c-0.4-2.7-1-5.4-1.9-8
					c-0.9-2.7-2.3-4.8-4.2-6.4c-1.9-1.6-4.3-2.4-7-2.4c-4.9,0-8.5,1.9-11,5.7c-2.5,3.8-3.8,8.3-3.9,13.5c-0.1,4.5,0.6,8.8,1.9,12.8
					c1.4,4,3.5,7.7,6.3,11.1c2.8,3.4,5.4,6.3,7.8,8.6c2.4,2.3,5.6,5.1,9.6,8.3c4,3.3,6.9,5.7,8.5,7.2c6.2,5.5,11.4,10.7,15.6,15.5
					c4.2,4.8,8.2,10.3,11.9,16.4c3.7,6.1,6.5,12.7,8.3,19.7c1.8,7.1,2.6,14.7,2.5,22.9c-0.2,15.3-5.9,27.9-17,37.7
					c-11.1,9.8-24.5,14.7-40.1,14.7c-10.1,0-19.1-1.9-26.9-5.6c-7.8-3.7-14.1-8.8-18.8-15.2c-4.7-6.4-8.3-13.5-10.8-21.3
					c-2.5-7.8-3.8-16.1-4.1-25.1l45-8.6c-0.1,4.5,0,8.4,0.1,11.8c0.1,3.4,0.5,7.1,1.1,11.1c0.6,4,1.5,7.3,2.7,9.9
					c1.1,2.6,2.8,4.7,4.9,6.4c2.1,1.7,4.6,2.6,7.6,2.6c8.8,0,13.2-5.6,13.4-16.8c0.2-15.3-8.2-30.6-25.2-45.7l-13.6-11.7
					c-4.3-3.6-7.8-6.7-10.3-9.1c-2.6-2.4-5.6-5.7-9-9.9c-3.5-4.1-6.2-8.1-8.1-12c-1.9-3.9-3.6-8.5-4.9-13.9
					c-1.3-5.4-2-11.2-1.9-17.3c0.3-17.8,6.1-31.8,17.5-42.1C50.8,381.9,65.8,376.8,84.5,376.8z"/>
			</g>
		</g>
		<g class="st1">
			<g>
				<polygon class="st25" points="212.3,444.9 218.4,451 205.6,532.2 199.5,526.1 				"/>
			</g>
			<g>
				<polygon class="st4" points="224.7,553.4 230.7,559.5 202.1,559.5 196.1,553.4 				"/>
			</g>
			<g>
				<polygon class="st26" points="196.1,553.4 202.1,559.5 192.9,606.3 186.9,600.2 				"/>
			</g>
			<g>
				<polygon class="st4" points="186.9,600.2 192.9,606.3 149,606.3 143,600.2 				"/>
			</g>
			<g>
				<polygon class="st4" points="276.6,600.2 282.7,606.3 239,606.3 233,600.2 				"/>
			</g>
			<g>
				<path class="st3" d="M232.7,381.3l43.9,219H233l-8.3-46.8h-28.6l-9.2,46.8H143l50.6-219H232.7z M199.5,526.1h22.6l-9.9-81.3
					L199.5,526.1"/>
			</g>
			<g>
				<polygon class="st27" points="232.7,381.3 238.8,387.3 282.7,606.3 276.6,600.2 				"/>
			</g>
		</g>
		<g class="st1">
			<g>
				<polygon class="st14" points="347.1,381.3 353.1,387.3 374.3,533.3 368.2,527.2 				"/>
			</g>
			<g>
				<polygon class="st28" points="326.8,445.2 332.8,451.3 329.5,606.3 323.5,600.2 				"/>
			</g>
			<g>
				<polygon class="st4" points="323.5,600.2 329.5,606.3 296.8,606.3 290.8,600.2 				"/>
			</g>
			<g>
				<polygon class="st4" points="384.4,600.2 390.5,606.3 357.4,606.3 351.3,600.2 				"/>
			</g>
			<g class="st1">
				<defs>
					<path id="SVGID_23_" class="st1" d="M412.3,446.2l6,6.1c-2.7,15.8-7.3,41.5-13.9,77c-6.6,35.5-11.3,61.2-13.9,77l-6-6.1
						c2.7-15.8,7.3-41.5,13.9-77C405,487.7,409.6,462,412.3,446.2z"/>
				</defs>
				<clipPath id="SVGID_24_">
					<use xlink:href="#SVGID_23_"  style="overflow:visible;"/>
				</clipPath>
				<g class="st29">
					<path class="st11" d="M412.3,446.2l6,6.1c-2.7,15.8-7.3,41.5-13.9,77c-6.6,35.5-11.3,61.2-13.9,77l-6-6.1
						c2.7-15.8,7.3-41.5,13.9-77C405,487.7,409.6,462,412.3,446.2"/>
				</g>
			</g>
			<g>
				<path class="st3" d="M446.8,381.3l-3.3,219h-32.6l1.3-154c-2.7,15.8-7.3,41.5-13.9,77c-6.6,35.5-11.3,61.2-13.9,77h-33.1
					l-24.6-155l-3.3,155h-32.7l3.3-219h53l21.2,146l27.4-146L446.8,381.3z"/>
			</g>
			<g>
				<polygon class="st4" points="443.5,600.2 449.6,606.3 417,606.3 410.9,600.2 				"/>
			</g>
			<g>
				<polygon class="st2" points="446.8,381.3 452.9,387.3 449.6,606.3 443.5,600.2 				"/>
			</g>
		</g>
	</g>
	<g>
		<polygon class="st30" points="678.4,438.7 581.7,494.5 485.1,438.7 581.7,382.9 		"/>
		<polygon class="st31" points="581.7,494.5 581.7,606 485.1,550.2 485.1,438.7 		"/>
		<polygon class="st32" points="678.4,438.7 678.4,550.2 581.7,606 581.7,494.5 		"/>
		<g class="st33">
			<path class="st34" d="M581.7,411.4l-62.5,35.8l62.5,35.8l62.5-35.8L581.7,411.4z M604.1,460.2l-22.4,12.9l-22.4-12.9l-8-4.6
				l-13.3-7.7l43.7-25.2l43.7,25.2l-13.3,7.7L604.1,460.2z"/>
			<polygon class="st31" points="612.1,455.6 604.1,460.2 581.7,447.2 559.4,460.2 551.4,455.6 581.7,438 			"/>
			
				<linearGradient id="SVGID_25_" gradientUnits="userSpaceOnUse" x1="543.0347" y1="321.5765" x2="577.2678" y2="262.2833" gradientTransform="matrix(1 0 0 -1 0 738)">
				<stop  offset="0" style="stop-color:#FFFFFF"/>
				<stop  offset="1" style="stop-color:#333333"/>
			</linearGradient>
			<path class="st35" d="M581.7,394.1v17.4l-62.5,35.8l-14.8-8.5L581.7,394.1z M538.1,447.9l13.3,7.7l30.4-17.5v-15.4L538.1,447.9z
				 M559.4,460.2l22.4,12.9v-25.9L559.4,460.2z"/>
			
				<linearGradient id="SVGID_26_" gradientUnits="userSpaceOnUse" x1="620.3654" y1="321.6765" x2="586.1516" y2="262.4164" gradientTransform="matrix(1 0 0 -1 0 738)">
				<stop  offset="0" style="stop-color:#FFFFFF"/>
				<stop  offset="1" style="stop-color:#000000"/>
			</linearGradient>
			<path class="st36" d="M659,438.7l-14.8,8.5l-62.5-35.8V394L659,438.7z M581.7,422.6V438l30.4,17.5l13.3-7.7L581.7,422.6z
				 M581.7,447.2v25.9l22.4-12.9L581.7,447.2z"/>
		</g>
		<g class="st33">
			<path class="st34" d="M509.8,536l62.3,36.2l-0.2-72L509.6,464L509.8,536z M540.8,492.2l22.4,12.9V531v9.2v15.4l-43.7-25.2v-50.5
				l13.3,7.7L540.8,492.2z"/>
			<polygon class="st31" points="532.9,487.6 540.8,492.2 540.8,518.1 563.2,531 563.2,540.2 532.9,522.7 			"/>
			
				<linearGradient id="SVGID_27_" gradientUnits="userSpaceOnUse" x1="195.4576" y1="522.8412" x2="229.67" y2="463.5837" gradientTransform="matrix(-0.5 -0.866 -0.866 0.5 1083.9532 474.8561)">
				<stop  offset="0" style="stop-color:#FFFFFF"/>
				<stop  offset="1" style="stop-color:#333333"/>
			</linearGradient>
			<path class="st37" d="M494.8,544.7l15-8.7l62.3,36.2v17.1L494.8,544.7z M563.2,555.6v-15.4l-30.4-17.5l-13.3,7.7L563.2,555.6z
				 M563.2,531v-25.9L540.8,518L563.2,531z"/>
			
				<linearGradient id="SVGID_28_" gradientUnits="userSpaceOnUse" x1="272.8138" y1="522.8012" x2="238.6133" y2="463.5643" gradientTransform="matrix(-0.5 -0.866 -0.866 0.5 1083.9532 474.8561)">
				<stop  offset="0" style="stop-color:#FFFFFF"/>
				<stop  offset="1" style="stop-color:#000000"/>
			</linearGradient>
			<path class="st38" d="M494.8,455.4l14.8,8.5l0.3,72l-15,8.7L494.8,455.4z M519.5,530.4l13.3-7.7v-35.1l-13.3-7.7V530.4z
				 M540.8,518.1l22.4-12.9l-22.4-12.9V518.1z"/>
		</g>
		<g class="st33">
			<path class="st34" d="M653.9,464l-62.3,36.2l-0.2,72l62.3-36.2L653.9,464z M630.6,487.6l13.3-7.7v50.5l-43.7,25.2v-15.4V531
				v-25.9l22.4-12.9L630.6,487.6z"/>
			<polygon class="st31" points="630.6,487.6 622.7,492.2 622.7,518.1 600.3,531 600.3,540.2 630.6,522.7 			"/>
			
				<linearGradient id="SVGID_29_" gradientUnits="userSpaceOnUse" x1="318.4944" y1="735.9409" x2="352.6989" y2="676.697" gradientTransform="matrix(0.5 -0.866 0.866 0.5 -166.516 474.8561)">
				<stop  offset="0" style="stop-color:#FFFFFF"/>
				<stop  offset="1" style="stop-color:#333333"/>
			</linearGradient>
			<path class="st39" d="M591.4,589.3v-17.1l62.3-36.2l15,8.7L591.4,589.3z M644,530.4l-13.3-7.7l-30.4,17.5v15.4L644,530.4z
				 M622.7,518.1l-22.4-12.9v25.9L622.7,518.1z"/>
			
				<linearGradient id="SVGID_30_" gradientUnits="userSpaceOnUse" x1="395.7652" y1="735.9531" x2="361.5514" y2="676.693" gradientTransform="matrix(0.5 -0.866 0.866 0.5 -166.516 474.8561)">
				<stop  offset="0" style="stop-color:#FFFFFF"/>
				<stop  offset="1" style="stop-color:#000000"/>
			</linearGradient>
			<path class="st40" d="M668.7,544.7l-15-8.7l0.3-72l14.8-8.5L668.7,544.7z M644,479.9l-13.3,7.7v35.1l13.3,7.7V479.9z
				 M622.7,492.2l-22.4,12.9l22.4,12.9V492.2z"/>
		</g>
	</g>
</g>
</svg>
