<?xml version="1.0" encoding="utf-8"?>
<!-- Generator: Adobe Illustrator 19.2.1, SVG Export Plug-In . SVG Version: 6.00 Build 0)  -->
<svg version="1.1" id="Layer_1" xmlns="http://www.w3.org/2000/svg" xmlns:xlink="http://www.w3.org/1999/xlink" x="0px" y="0px"
	 viewBox="0 0 735.5 735.5" style="enable-background:new 0 0 735.5 735.5;" xml:space="preserve">
<style type="text/css">
	.st0{fill:none;}
	.st1{display:none;}
	.st2{display:inline;fill:#FFFFFF;}
	.st3{font-family:'Oswald-Bold';}
	.st4{font-size:317.3164px;}
	.st5{fill:#FFFFFF;}
	.st6{fill:#E5E5E5;}
	.st7{fill:#B2B2B2;}
	.st8{opacity:0.9;}
	.st9{fill:#EFEFEF;}
	.st10{fill:url(#SVGID_1_);}
	.st11{fill:url(#SVGID_2_);}
	.st12{fill:url(#SVGID_3_);}
	.st13{fill:url(#SVGID_4_);}
	.st14{fill:url(#SVGID_5_);}
	.st15{fill:url(#SVGID_6_);}
</style>
<g>
	<rect x="-74.7" y="66.5" class="st0" width="884.9" height="602.5"/>
	<text transform="matrix(1 0 0 1 -74.7479 345.3542)" class="st1"><tspan x="0" y="0" class="st2 st3 st4">LIFE OF </tspan><tspan x="0" y="322.4" class="st2 st3 st4">SAM</tspan></text>
	<g>
		<polygon class="st5" points="631.5,215.4 367.7,367.7 103.9,215.4 367.7,63.1 		"/>
		<polygon class="st6" points="367.7,367.7 367.7,672.4 103.9,520 103.9,215.4 		"/>
		<polygon class="st7" points="631.5,215.4 631.5,520 367.7,672.4 367.7,367.7 		"/>
		<g class="st8">
			<path class="st9" d="M367.7,140.9L197,238.7l170.7,97.8l170.7-97.8L367.7,140.9z M428.9,274l-61.2,35.3L306.6,274l-21.7-12.6
				l-36.4-21l119.3-68.9l119.3,68.9l-36.4,21L428.9,274z"/>
			<polygon class="st6" points="450.6,261.5 428.9,274 367.7,238.7 306.6,274 284.8,261.5 367.7,213.6 			"/>
			<linearGradient id="SVGID_1_" gradientUnits="userSpaceOnUse" x1="262.1924" y1="154.4808" x2="355.6241" y2="316.3092">
				<stop  offset="0" style="stop-color:#FFFFFF"/>
				<stop  offset="1" style="stop-color:#333333"/>
			</linearGradient>
			<path class="st10" d="M367.7,93.6v47.4L197,238.7l-40.4-23.3L367.7,93.6z M248.4,240.4l36.4,21l82.9-47.9v-42.1L248.4,240.4z
				 M306.6,274l61.1,35.3v-70.6L306.6,274z"/>
			<linearGradient id="SVGID_2_" gradientUnits="userSpaceOnUse" x1="473.2562" y1="154.4797" x2="379.8205" y2="316.3151">
				<stop  offset="0" style="stop-color:#FFFFFF"/>
				<stop  offset="1" style="stop-color:#000000"/>
			</linearGradient>
			<path class="st11" d="M578.8,215.4l-40.4,23.3l-170.7-97.8V93.6L578.8,215.4z M367.7,171.5v42.1l82.9,47.9l36.4-21L367.7,171.5z
				 M367.7,238.7v70.6l61.2-35.3L367.7,238.7z"/>
		</g>
		<g class="st8">
			<path class="st9" d="M171.3,481.1l170,98.9l-0.7-196.7l-170-99L171.3,481.1z M256,361.6l61.2,35.3l0,70.6l0,25.1l0,42.1
				l-119.3-68.9l0-137.8l36.4,21L256,361.6z"/>
			<polygon class="st6" points="234.2,349.1 256,361.6 256,432.3 317.1,467.5 317.1,492.7 234.2,444.8 			"/>
			
				<linearGradient id="SVGID_3_" gradientUnits="userSpaceOnUse" x1="655.3096" y1="41.0741" x2="748.7413" y2="202.9025" gradientTransform="matrix(-0.5 -0.866 0.866 -0.5 527.8993 1153.8021)">
				<stop  offset="0" style="stop-color:#FFFFFF"/>
				<stop  offset="1" style="stop-color:#333333"/>
			</linearGradient>
			<path class="st12" d="M130.3,504.8l41-23.7l170,98.9l0,46.6L130.3,504.8z M317.1,534.7l0-42.1l-82.9-47.8l-36.4,21L317.1,534.7z
				 M317.1,467.5l0-70.6L256,432.3L317.1,467.5z"/>
			
				<linearGradient id="SVGID_4_" gradientUnits="userSpaceOnUse" x1="866.3734" y1="41.073" x2="772.9377" y2="202.9084" gradientTransform="matrix(-0.5 -0.866 0.866 -0.5 527.8993 1153.8021)">
				<stop  offset="0" style="stop-color:#FFFFFF"/>
				<stop  offset="1" style="stop-color:#000000"/>
			</linearGradient>
			<path class="st13" d="M130.3,261.1l40.4,23.3l0.7,196.7l-41,23.7L130.3,261.1z M197.8,465.8l36.4-21l0-95.7l-36.4-21L197.8,465.8
				z M256,432.3l61.2-35.3L256,361.6L256,432.3z"/>
		</g>
		<g class="st8">
			<path class="st9" d="M564.8,284.4l-170,99l-0.7,196.7l170-98.9L564.8,284.4z M501.2,349.1l36.4-21l0,137.8l-119.3,68.9l0-42.1
				l0-25.1l0-70.6l61.2-35.3L501.2,349.1z"/>
			<polygon class="st6" points="501.2,349.1 479.5,361.6 479.5,432.3 418.3,467.5 418.3,492.7 501.2,444.8 			"/>
			
				<linearGradient id="SVGID_5_" gradientUnits="userSpaceOnUse" x1="433.316" y1="425.5784" x2="526.7477" y2="587.4069" gradientTransform="matrix(0.5 -0.866 -0.866 -0.5 651.538 1153.8021)">
				<stop  offset="0" style="stop-color:#FFFFFF"/>
				<stop  offset="1" style="stop-color:#333333"/>
			</linearGradient>
			<path class="st14" d="M394.1,626.7l0-46.6l170-98.9l41,23.7L394.1,626.7z M537.6,465.8l-36.4-21l-82.9,47.8l0,42.1L537.6,465.8z
				 M479.5,432.3l-61.2-35.3l0,70.6L479.5,432.3z"/>
			
				<linearGradient id="SVGID_6_" gradientUnits="userSpaceOnUse" x1="644.3798" y1="425.5773" x2="550.944" y2="587.4127" gradientTransform="matrix(0.5 -0.866 -0.866 -0.5 651.538 1153.8021)">
				<stop  offset="0" style="stop-color:#FFFFFF"/>
				<stop  offset="1" style="stop-color:#000000"/>
			</linearGradient>
			<path class="st15" d="M605.2,504.8l-41-23.7l0.7-196.7l40.4-23.3L605.2,504.8z M537.6,328l-36.4,21l0,95.7l36.4,21L537.6,328z
				 M479.5,361.6l-61.2,35.3l61.2,35.3L479.5,361.6z"/>
		</g>
	</g>
</g>
</svg>
