<?xml version="1.0" encoding="utf-8"?>
<!-- Generator: Adobe Illustrator 19.1.0, SVG Export Plug-In . SVG Version: 6.00 Build 0)  -->
<svg version="1.1" id="Layer_1" xmlns="http://www.w3.org/2000/svg" xmlns:xlink="http://www.w3.org/1999/xlink" x="0px" y="0px"
	 viewBox="-490 367.3 97.7 97.7" style="enable-background:new -490 367.3 97.7 97.7;" xml:space="preserve">
<style type="text/css">
	.st0{fill:#FFFFFF;}
	.st1{fill:none;stroke:#FFFFFF;stroke-width:3;stroke-miterlimit:10;}
</style>
<g>
	<path class="st0" d="M-408.5,448.9c-3.7,4.6-8.5,8.4-13.8,11.1c-5.7,2.8-12.1,4.4-18.8,4.4s-13.2-1.6-18.8-4.4
		c-5.4-2.7-10.1-6.5-13.8-11.1c0.3-3.7,3.8-6,8.2-8.6c4.7-2.7,10.4-5.5,14.7-10.3v-2.5c-1.9-2.3-3.4-4.9-4.6-7.8c-0.4-1-0.7-1.9-1-3
		c-1.2-0.6-2.2-2.2-2.4-4.2c-0.1-0.6-0.1-1.2,0-1.9c0.2-1,0.5-1.8,1.1-2.4c-0.1-1.9-0.1-3.9,0-6c0-1.7,0.2-3.4,0.4-5.1
		c0.1-0.4,0.1-0.8,0.2-1.2c1.8-10.2,11-11.2,14.6-11.2h2.7c3.5,0,12.8,1.1,14.6,11.2c0.1,0.4,0.1,0.8,0.2,1.2
		c0.2,1.8,0.3,3.4,0.4,5.1c0.1,2.1,0.1,4.2,0,6c0.5,0.5,0.9,1.4,1.1,2.4c0.1,0.5,0.1,1.1,0,1.9c-0.3,2-1.2,3.6-2.4,4.2
		c-0.1,0.5-0.3,1.1-0.4,1.6c-1.1,3.6-2.8,6.6-5.1,9.3v2.5C-423.2,439.5-409.2,441.4-408.5,448.9z"/>
	<circle class="st1" cx="-441.1" cy="416.1" r="47.6"/>
</g>
</svg>
